{
  "header": {
    "keySignatures": [],
    "meta": [],
    "name": "",
    "ppq": 1024,
    "tempos": [
      {
        "bpm": 86.00005160003096,
        "ticks": 0
      }
    ],
    "timeSignatures": [
      {
        "ticks": 0,
        "timeSignature": [4, 4],
        "measures": 0
      }
    ]
  },
  "tracks": [
    {
      "channel": 0,
      "controlChanges": {},
      "pitchBends": [
        {
          "ticks": 0,
          "time": 0,
          "value": 0
        }
      ],
      "instrument": {
        "family": "piano",
        "number": 0,
        "name": "acoustic grand piano"
      },
      "name": "",
      "notes": [
        {
          "duration": 0.1744185,
          "durationTicks": 256,
          "midi": 60,
          "name": "C4",
          "ticks": 256,
          "time": 0.1744185,
          "velocity": 0.5039370078740157
        },
        {
          "duration": 0.17441849999999998,
          "durationTicks": 256,
          "midi": 62,
          "name": "D4",
          "ticks": 512,
          "time": 0.348837,
          "velocity": 0.5039370078740157
        },
        {
          "duration": 0.17441850000000003,
          "durationTicks": 256,
          "midi": 64,
          "name": "E4",
          "ticks": 768,
          "time": 0.5232555,
          "velocity": 0.5039370078740157
        },
        {
          "duration": 0.17441850000000003,
          "durationTicks": 256,
          "midi": 65,
          "name": "F4",
          "ticks": 1024,
          "time": 0.697674,
          "velocity": 0.5039370078740157
        },
        {
          "duration": 0.17441849999999992,
          "durationTicks": 256,
          "midi": 62,
          "name": "D4",
          "ticks": 1280,
          "time": 0.8720925,
          "velocity": 0.5039370078740157
        },
        {
          "duration": 0.17441850000000003,
          "durationTicks": 256,
          "midi": 64,
          "name": "E4",
          "ticks": 1536,
          "time": 1.046511,
          "velocity": 0.5039370078740157
        },
        {
          "duration": 0.17441850000000003,
          "durationTicks": 256,
          "midi": 60,
          "name": "C4",
          "ticks": 1792,
          "time": 1.2209295,
          "velocity": 0.5039370078740157
        },
        {
          "duration": 0.34883700000000006,
          "durationTicks": 512,
          "midi": 67,
          "name": "G4",
          "ticks": 2048,
          "time": 1.395348,
          "velocity": 0.5039370078740157
        },
        {
          "duration": 0.17441850000000003,
          "durationTicks": 256,
          "midi": 48,
          "name": "C3",
          "ticks": 2304,
          "time": 1.5697665,
          "velocity": 0.5039370078740157
        },
        {
          "duration": 0.34883699999999984,
          "durationTicks": 512,
          "midi": 72,
          "name": "C5",
          "ticks": 2560,
          "time": 1.744185,
          "velocity": 0.5039370078740157
        },
        {
          "duration": 0.17441850000000003,
          "durationTicks": 256,
          "midi": 50,
          "name": "D3",
          "ticks": 2560,
          "time": 1.744185,
          "velocity": 0.5039370078740157
        },
        {
          "duration": 0.1744184999999998,
          "durationTicks": 256,
          "midi": 52,
          "name": "E3",
          "ticks": 2816,
          "time": 1.9186035000000001,
          "velocity": 0.5039370078740157
        },
        {
          "duration": 0.17441850000000025,
          "durationTicks": 256,
          "midi": 71,
          "name": "B4",
          "ticks": 3072,
          "time": 2.093022,
          "velocity": 0.5039370078740157
        },
        {
          "duration": 0.17441850000000025,
          "durationTicks": 256,
          "midi": 69,
          "name": "A4",
          "ticks": 3072,
          "time": 2.093022,
          "velocity": 0.4409448818897638
        },
        {
          "duration": 0.17441850000000025,
          "durationTicks": 256,
          "midi": 53,
          "name": "F3",
          "ticks": 3072,
          "time": 2.093022,
          "velocity": 0.5039370078740157
        },
        {
          "duration": 0.1744184999999998,
          "durationTicks": 256,
          "midi": 71,
          "name": "B4",
          "ticks": 3328,
          "time": 2.2674405,
          "velocity": 0.5039370078740157
        },
        {
          "duration": 0.1744184999999998,
          "durationTicks": 256,
          "midi": 50,
          "name": "D3",
          "ticks": 3328,
          "time": 2.2674405,
          "velocity": 0.5039370078740157
        },
        {
          "duration": 0.34883700000000006,
          "durationTicks": 512,
          "midi": 72,
          "name": "C5",
          "ticks": 3584,
          "time": 2.441859,
          "velocity": 0.5039370078740157
        },
        {
          "duration": 0.17441850000000025,
          "durationTicks": 256,
          "midi": 52,
          "name": "E3",
          "ticks": 3584,
          "time": 2.441859,
          "velocity": 0.5039370078740157
        },
        {
          "duration": 0.1744184999999998,
          "durationTicks": 256,
          "midi": 48,
          "name": "C3",
          "ticks": 3840,
          "time": 2.6162775000000003,
          "velocity": 0.5039370078740157
        },
        {
          "duration": 0.1744184999999998,
          "durationTicks": 256,
          "midi": 74,
          "name": "D5",
          "ticks": 4096,
          "time": 2.790696,
          "velocity": 0.5039370078740157
        },
        {
          "duration": 0.34883700000000006,
          "durationTicks": 512,
          "midi": 55,
          "name": "G3",
          "ticks": 4096,
          "time": 2.790696,
          "velocity": 0.5039370078740157
        },
        {
          "duration": 0.17441850000000025,
          "durationTicks": 256,
          "midi": 67,
          "name": "G4",
          "ticks": 4352,
          "time": 2.9651145,
          "velocity": 0.5039370078740157
        },
        {
          "duration": 0.1744184999999998,
          "durationTicks": 256,
          "midi": 69,
          "name": "A4",
          "ticks": 4608,
          "time": 3.139533,
          "velocity": 0.5039370078740157
        },
        {
          "duration": 0.34883700000000006,
          "durationTicks": 512,
          "midi": 43,
          "name": "G2",
          "ticks": 4608,
          "time": 3.139533,
          "velocity": 0.5039370078740157
        },
        {
          "duration": 0.17441850000000025,
          "durationTicks": 256,
          "midi": 71,
          "name": "B4",
          "ticks": 4864,
          "time": 3.3139515,
          "velocity": 0.5039370078740157
        },
        {
          "duration": 0.1744184999999998,
          "durationTicks": 256,
          "midi": 72,
          "name": "C5",
          "ticks": 5120,
          "time": 3.48837,
          "velocity": 0.5039370078740157
        },
        {
          "duration": 0.17441850000000025,
          "durationTicks": 256,
          "midi": 69,
          "name": "A4",
          "ticks": 5376,
          "time": 3.6627885,
          "velocity": 0.5039370078740157
        },
        {
          "duration": 0.1744184999999998,
          "durationTicks": 256,
          "midi": 71,
          "name": "B4",
          "ticks": 5632,
          "time": 3.8372070000000003,
          "velocity": 0.5039370078740157
        },
        {
          "duration": 0.1744184999999998,
          "durationTicks": 256,
          "midi": 67,
          "name": "G4",
          "ticks": 5888,
          "time": 4.0116255,
          "velocity": 0.5039370078740157
        },
        {
          "duration": 0.3488370000000005,
          "durationTicks": 512,
          "midi": 74,
          "name": "D5",
          "ticks": 6144,
          "time": 4.186044,
          "velocity": 0.5039370078740157
        },
        {
          "duration": 0.1744185000000007,
          "durationTicks": 256,
          "midi": 55,
          "name": "G3",
          "ticks": 6400,
          "time": 4.3604625,
          "velocity": 0.5039370078740157
        },
        {
          "duration": 0.3488369999999996,
          "durationTicks": 512,
          "midi": 79,
          "name": "G5",
          "ticks": 6656,
          "time": 4.534881,
          "velocity": 0.5039370078740157
        },
        {
          "duration": 0.1744184999999998,
          "durationTicks": 256,
          "midi": 57,
          "name": "A3",
          "ticks": 6656,
          "time": 4.534881,
          "velocity": 0.5039370078740157
        },
        {
          "duration": 0.1744184999999998,
          "durationTicks": 256,
          "midi": 59,
          "name": "B3",
          "ticks": 6912,
          "time": 4.7092995,
          "velocity": 0.5039370078740157
        },
        {
          "duration": 0.1744184999999998,
          "durationTicks": 256,
          "midi": 77,
          "name": "F5",
          "ticks": 7168,
          "time": 4.883718,
          "velocity": 0.5039370078740157
        },
        {
          "duration": 0.1744184999999998,
          "durationTicks": 256,
          "midi": 76,
          "name": "E5",
          "ticks": 7168,
          "time": 4.883718,
          "velocity": 0.4409448818897638
        },
        {
          "duration": 0.1744184999999998,
          "durationTicks": 256,
          "midi": 60,
          "name": "C4",
          "ticks": 7168,
          "time": 4.883718,
          "velocity": 0.5039370078740157
        },
        {
          "duration": 0.1744185000000007,
          "durationTicks": 256,
          "midi": 77,
          "name": "F5",
          "ticks": 7424,
          "time": 5.0581365,
          "velocity": 0.5039370078740157
        },
        {
          "duration": 0.1744185000000007,
          "durationTicks": 256,
          "midi": 57,
          "name": "A3",
          "ticks": 7424,
          "time": 5.0581365,
          "velocity": 0.5039370078740157
        },
        {
          "duration": 0.3488369999999996,
          "durationTicks": 512,
          "midi": 79,
          "name": "G5",
          "ticks": 7680,
          "time": 5.2325550000000005,
          "velocity": 0.5039370078740157
        },
        {
          "duration": 0.1744184999999998,
          "durationTicks": 256,
          "midi": 59,
          "name": "B3",
          "ticks": 7680,
          "time": 5.2325550000000005,
          "velocity": 0.5039370078740157
        },
        {
          "duration": 0.1744184999999998,
          "durationTicks": 256,
          "midi": 55,
          "name": "G3",
          "ticks": 7936,
          "time": 5.4069735,
          "velocity": 0.5039370078740157
        },
        {
          "duration": 0.1744184999999998,
          "durationTicks": 256,
          "midi": 76,
          "name": "E5",
          "ticks": 8192,
          "time": 5.581392,
          "velocity": 0.5039370078740157
        },
        {
          "duration": 0.3488369999999996,
          "durationTicks": 512,
          "midi": 60,
          "name": "C4",
          "ticks": 8192,
          "time": 5.581392,
          "velocity": 0.5039370078740157
        },
        {
          "duration": 0.1744184999999998,
          "durationTicks": 256,
          "midi": 81,
          "name": "A5",
          "ticks": 8448,
          "time": 5.7558105,
          "velocity": 0.5039370078740157
        },
        {
          "duration": 0.1744185000000007,
          "durationTicks": 256,
          "midi": 79,
          "name": "G5",
          "ticks": 8704,
          "time": 5.930229,
          "velocity": 0.5039370078740157
        },
        {
          "duration": 0.3488370000000005,
          "durationTicks": 512,
          "midi": 59,
          "name": "B3",
          "ticks": 8704,
          "time": 5.930229,
          "velocity": 0.5039370078740157
        },
        {
          "duration": 0.1744184999999998,
          "durationTicks": 256,
          "midi": 77,
          "name": "F5",
          "ticks": 8960,
          "time": 6.1046475000000004,
          "velocity": 0.5039370078740157
        },
        {
          "duration": 0.1744184999999998,
          "durationTicks": 256,
          "midi": 76,
          "name": "E5",
          "ticks": 9216,
          "time": 6.279066,
          "velocity": 0.5039370078740157
        },
        {
          "duration": 0.3488369999999996,
          "durationTicks": 512,
          "midi": 60,
          "name": "C4",
          "ticks": 9216,
          "time": 6.279066,
          "velocity": 0.5039370078740157
        },
        {
          "duration": 0.1744184999999998,
          "durationTicks": 256,
          "midi": 79,
          "name": "G5",
          "ticks": 9472,
          "time": 6.4534845,
          "velocity": 0.5039370078740157
        },
        {
          "duration": 0.1744185000000007,
          "durationTicks": 256,
          "midi": 77,
          "name": "F5",
          "ticks": 9728,
          "time": 6.627903,
          "velocity": 0.5039370078740157
        },
        {
          "duration": 0.3488370000000005,
          "durationTicks": 512,
          "midi": 62,
          "name": "D4",
          "ticks": 9728,
          "time": 6.627903,
          "velocity": 0.5039370078740157
        },
        {
          "duration": 0.1744184999999998,
          "durationTicks": 256,
          "midi": 81,
          "name": "A5",
          "ticks": 9984,
          "time": 6.802321500000001,
          "velocity": 0.5039370078740157
        },
        {
          "duration": 0.1744184999999998,
          "durationTicks": 256,
          "midi": 79,
          "name": "G5",
          "ticks": 10240,
          "time": 6.97674,
          "velocity": 0.5039370078740157
        },
        {
          "duration": 0.3488369999999996,
          "durationTicks": 512,
          "midi": 64,
          "name": "E4",
          "ticks": 10240,
          "time": 6.97674,
          "velocity": 0.5039370078740157
        },
        {
          "duration": 0.1744184999999998,
          "durationTicks": 256,
          "midi": 77,
          "name": "F5",
          "ticks": 10496,
          "time": 7.1511585,
          "velocity": 0.5039370078740157
        },
        {
          "duration": 0.1744184999999998,
          "durationTicks": 256,
          "midi": 76,
          "name": "E5",
          "ticks": 10752,
          "time": 7.325577,
          "velocity": 0.5039370078740157
        },
        {
          "duration": 0.3488370000000005,
          "durationTicks": 512,
          "midi": 55,
          "name": "G3",
          "ticks": 10752,
          "time": 7.325577,
          "velocity": 0.5039370078740157
        },
        {
          "duration": 0.1744185000000007,
          "durationTicks": 256,
          "midi": 74,
          "name": "D5",
          "ticks": 11008,
          "time": 7.4999955,
          "velocity": 0.5039370078740157
        },
        {
          "duration": 0.1744184999999998,
          "durationTicks": 256,
          "midi": 72,
          "name": "C5",
          "ticks": 11264,
          "time": 7.6744140000000005,
          "velocity": 0.5039370078740157
        },
        {
          "duration": 0.3488369999999996,
          "durationTicks": 512,
          "midi": 57,
          "name": "A3",
          "ticks": 11264,
          "time": 7.6744140000000005,
          "velocity": 0.5039370078740157
        },
        {
          "duration": 0.1744184999999998,
          "durationTicks": 256,
          "midi": 76,
          "name": "E5",
          "ticks": 11520,
          "time": 7.8488325,
          "velocity": 0.5039370078740157
        },
        {
          "duration": 0.1744184999999998,
          "durationTicks": 256,
          "midi": 74,
          "name": "D5",
          "ticks": 11776,
          "time": 8.023251,
          "velocity": 0.5039370078740157
        },
        {
          "duration": 0.3488369999999996,
          "durationTicks": 512,
          "midi": 59,
          "name": "B3",
          "ticks": 11776,
          "time": 8.023251,
          "velocity": 0.5039370078740157
        },
        {
          "duration": 0.1744184999999998,
          "durationTicks": 256,
          "midi": 77,
          "name": "F5",
          "ticks": 12032,
          "time": 8.1976695,
          "velocity": 0.5039370078740157
        },
        {
          "duration": 0.1744184999999998,
          "durationTicks": 256,
          "midi": 76,
          "name": "E5",
          "ticks": 12288,
          "time": 8.372088,
          "velocity": 0.5039370078740157
        },
        {
          "duration": 0.3488369999999996,
          "durationTicks": 512,
          "midi": 60,
          "name": "C4",
          "ticks": 12288,
          "time": 8.372088,
          "velocity": 0.5039370078740157
        },
        {
          "duration": 0.1744184999999998,
          "durationTicks": 256,
          "midi": 74,
          "name": "D5",
          "ticks": 12544,
          "time": 8.5465065,
          "velocity": 0.5039370078740157
        },
        {
          "duration": 0.1744185000000016,
          "durationTicks": 256,
          "midi": 72,
          "name": "C5",
          "ticks": 12800,
          "time": 8.720925,
          "velocity": 0.5039370078740157
        },
        {
          "duration": 0.3488370000000014,
          "durationTicks": 512,
          "midi": 52,
          "name": "E3",
          "ticks": 12800,
          "time": 8.720925,
          "velocity": 0.5039370078740157
        },
        {
          "duration": 0.1744184999999998,
          "durationTicks": 256,
          "midi": 71,
          "name": "B4",
          "ticks": 13056,
          "time": 8.895343500000001,
          "velocity": 0.5039370078740157
        },
        {
          "duration": 0.1744184999999998,
          "durationTicks": 256,
          "midi": 69,
          "name": "A4",
          "ticks": 13312,
          "time": 9.069762,
          "velocity": 0.5039370078740157
        },
        {
          "duration": 0.3488369999999996,
          "durationTicks": 512,
          "midi": 54,
          "name": "F#3",
          "ticks": 13312,
          "time": 9.069762,
          "velocity": 0.5039370078740157
        },
        {
          "duration": 0.1744184999999998,
          "durationTicks": 256,
          "midi": 72,
          "name": "C5",
          "ticks": 13568,
          "time": 9.2441805,
          "velocity": 0.5039370078740157
        },
        {
          "duration": 0.1744184999999998,
          "durationTicks": 256,
          "midi": 71,
          "name": "B4",
          "ticks": 13824,
          "time": 9.418599,
          "velocity": 0.5039370078740157
        },
        {
          "duration": 0.3488369999999996,
          "durationTicks": 512,
          "midi": 55,
          "name": "G3",
          "ticks": 13824,
          "time": 9.418599,
          "velocity": 0.5039370078740157
        },
        {
          "duration": 0.1744184999999998,
          "durationTicks": 256,
          "midi": 74,
          "name": "D5",
          "ticks": 14080,
          "time": 9.5930175,
          "velocity": 0.5039370078740157
        },
        {
          "duration": 0.1744184999999998,
          "durationTicks": 256,
          "midi": 72,
          "name": "C5",
          "ticks": 14336,
          "time": 9.767436,
          "velocity": 0.5039370078740157
        },
        {
          "duration": 0.3488369999999996,
          "durationTicks": 512,
          "midi": 57,
          "name": "A3",
          "ticks": 14336,
          "time": 9.767436,
          "velocity": 0.5039370078740157
        },
        {
          "duration": 0.1744184999999998,
          "durationTicks": 256,
          "midi": 71,
          "name": "B4",
          "ticks": 14592,
          "time": 9.9418545,
          "velocity": 0.5039370078740157
        },
        {
          "duration": 0.1744184999999998,
          "durationTicks": 256,
          "midi": 69,
          "name": "A4",
          "ticks": 14848,
          "time": 10.116273,
          "velocity": 0.5039370078740157
        },
        {
          "duration": 0.3488370000000014,
          "durationTicks": 512,
          "midi": 59,
          "name": "B3",
          "ticks": 14848,
          "time": 10.116273,
          "velocity": 0.5039370078740157
        },
        {
          "duration": 0.1744185000000016,
          "durationTicks": 256,
          "midi": 67,
          "name": "G4",
          "ticks": 15104,
          "time": 10.2906915,
          "velocity": 0.5039370078740157
        },
        {
          "duration": 0.1744184999999998,
          "durationTicks": 256,
          "midi": 66,
          "name": "F#4",
          "ticks": 15360,
          "time": 10.465110000000001,
          "velocity": 0.5039370078740157
        },
        {
          "duration": 0.872092499999999,
          "durationTicks": 1280,
          "midi": 60,
          "name": "C4",
          "ticks": 15360,
          "time": 10.465110000000001,
          "velocity": 0.5039370078740157
        },
        {
          "duration": 0.1744184999999998,
          "durationTicks": 256,
          "midi": 69,
          "name": "A4",
          "ticks": 15616,
          "time": 10.6395285,
          "velocity": 0.5039370078740157
        },
        {
          "duration": 0.1744184999999998,
          "durationTicks": 256,
          "midi": 67,
          "name": "G4",
          "ticks": 15872,
          "time": 10.813947,
          "velocity": 0.5039370078740157
        },
        {
          "duration": 0.1744184999999998,
          "durationTicks": 256,
          "midi": 71,
          "name": "B4",
          "ticks": 16128,
          "time": 10.9883655,
          "velocity": 0.5039370078740157
        },
        {
          "duration": 0.3488369999999996,
          "durationTicks": 512,
          "midi": 69,
          "name": "A4",
          "ticks": 16384,
          "time": 11.162784,
          "velocity": 0.5039370078740157
        },
        {
          "duration": 0.1744184999999998,
          "durationTicks": 256,
          "midi": 50,
          "name": "D3",
          "ticks": 16640,
          "time": 11.3372025,
          "velocity": 0.5039370078740157
        },
        {
          "duration": 0.3488369999999996,
          "durationTicks": 512,
          "midi": 62,
          "name": "D4",
          "ticks": 16896,
          "time": 11.511621,
          "velocity": 0.5039370078740157
        },
        {
          "duration": 0.1744184999999998,
          "durationTicks": 256,
          "midi": 52,
          "name": "E3",
          "ticks": 16896,
          "time": 11.511621,
          "velocity": 0.5039370078740157
        },
        {
          "duration": 0.1744184999999998,
          "durationTicks": 256,
          "midi": 54,
          "name": "F#3",
          "ticks": 17152,
          "time": 11.6860395,
          "velocity": 0.5039370078740157
        },
        {
          "duration": 0.1744185000000016,
          "durationTicks": 256,
          "midi": 72,
          "name": "C5",
          "ticks": 17408,
          "time": 11.860458,
          "velocity": 0.5039370078740157
        },
        {
          "duration": 0.1744185000000016,
          "durationTicks": 256,
          "midi": 71,
          "name": "B4",
          "ticks": 17408,
          "time": 11.860458,
          "velocity": 0.4409448818897638
        },
        {
          "duration": 0.1744185000000016,
          "durationTicks": 256,
          "midi": 55,
          "name": "G3",
          "ticks": 17408,
          "time": 11.860458,
          "velocity": 0.5039370078740157
        },
        {
          "duration": 0.3488369999999996,
          "durationTicks": 512,
          "midi": 72,
          "name": "C5",
          "ticks": 17664,
          "time": 12.034876500000001,
          "velocity": 0.5039370078740157
        },
        {
          "duration": 0.1744184999999998,
          "durationTicks": 256,
          "midi": 52,
          "name": "E3",
          "ticks": 17664,
          "time": 12.034876500000001,
          "velocity": 0.5039370078740157
        },
        {
          "duration": 0.1744184999999998,
          "durationTicks": 256,
          "midi": 54,
          "name": "F#3",
          "ticks": 17920,
          "time": 12.209295000000001,
          "velocity": 0.5039370078740157
        },
        {
          "duration": 0.1744184999999998,
          "durationTicks": 256,
          "midi": 74,
          "name": "D5",
          "ticks": 18176,
          "time": 12.3837135,
          "velocity": 0.5039370078740157
        },
        {
          "duration": 0.1744184999999998,
          "durationTicks": 256,
          "midi": 50,
          "name": "D3",
          "ticks": 18176,
          "time": 12.3837135,
          "velocity": 0.5039370078740157
        },
        {
          "duration": 0.1744184999999998,
          "durationTicks": 256,
          "midi": 71,
          "name": "B4",
          "ticks": 18432,
          "time": 12.558132,
          "velocity": 0.5039370078740157
        },
        {
          "duration": 0.3488369999999996,
          "durationTicks": 512,
          "midi": 55,
          "name": "G3",
          "ticks": 18432,
          "time": 12.558132,
          "velocity": 0.5039370078740157
        },
        {
          "duration": 0.1744184999999998,
          "durationTicks": 256,
          "midi": 69,
          "name": "A4",
          "ticks": 18688,
          "time": 12.7325505,
          "velocity": 0.5039370078740157
        },
        {
          "duration": 0.1744184999999998,
          "durationTicks": 256,
          "midi": 67,
          "name": "G4",
          "ticks": 18944,
          "time": 12.906969,
          "velocity": 0.5039370078740157
        },
        {
          "duration": 0.3488369999999996,
          "durationTicks": 512,
          "midi": 47,
          "name": "B2",
          "ticks": 18944,
          "time": 12.906969,
          "velocity": 0.5039370078740157
        },
        {
          "duration": 0.1744184999999998,
          "durationTicks": 256,
          "midi": 66,
          "name": "F#4",
          "ticks": 19200,
          "time": 13.0813875,
          "velocity": 0.5039370078740157
        },
        {
          "duration": 0.1744184999999998,
          "durationTicks": 256,
          "midi": 64,
          "name": "E4",
          "ticks": 19456,
          "time": 13.255806,
          "velocity": 0.5039370078740157
        },
        {
          "duration": 0.3488370000000014,
          "durationTicks": 512,
          "midi": 48,
          "name": "C3",
          "ticks": 19456,
          "time": 13.255806,
          "velocity": 0.5039370078740157
        },
        {
          "duration": 0.1744185000000016,
          "durationTicks": 256,
          "midi": 67,
          "name": "G4",
          "ticks": 19712,
          "time": 13.4302245,
          "velocity": 0.5039370078740157
        },
        {
          "duration": 0.1744184999999998,
          "durationTicks": 256,
          "midi": 66,
          "name": "F#4",
          "ticks": 19968,
          "time": 13.604643000000001,
          "velocity": 0.5039370078740157
        },
        {
          "duration": 0.3488369999999996,
          "durationTicks": 512,
          "midi": 50,
          "name": "D3",
          "ticks": 19968,
          "time": 13.604643000000001,
          "velocity": 0.5039370078740157
        },
        {
          "duration": 0.1744184999999998,
          "durationTicks": 256,
          "midi": 69,
          "name": "A4",
          "ticks": 20224,
          "time": 13.779061500000001,
          "velocity": 0.5039370078740157
        },
        {
          "duration": 0.1744184999999998,
          "durationTicks": 256,
          "midi": 67,
          "name": "G4",
          "ticks": 20480,
          "time": 13.95348,
          "velocity": 0.5039370078740157
        },
        {
          "duration": 0.3488369999999996,
          "durationTicks": 512,
          "midi": 52,
          "name": "E3",
          "ticks": 20480,
          "time": 13.95348,
          "velocity": 0.5039370078740157
        },
        {
          "duration": 0.1744184999999998,
          "durationTicks": 256,
          "midi": 71,
          "name": "B4",
          "ticks": 20736,
          "time": 14.1278985,
          "velocity": 0.5039370078740157
        },
        {
          "duration": 0.1744184999999998,
          "durationTicks": 256,
          "midi": 69,
          "name": "A4",
          "ticks": 20992,
          "time": 14.302317,
          "velocity": 0.5039370078740157
        },
        {
          "duration": 0.3488369999999996,
          "durationTicks": 512,
          "midi": 54,
          "name": "F#3",
          "ticks": 20992,
          "time": 14.302317,
          "velocity": 0.5039370078740157
        },
        {
          "duration": 0.1744184999999998,
          "durationTicks": 256,
          "midi": 72,
          "name": "C5",
          "ticks": 21248,
          "time": 14.4767355,
          "velocity": 0.5039370078740157
        },
        {
          "duration": 0.1744184999999998,
          "durationTicks": 256,
          "midi": 71,
          "name": "B4",
          "ticks": 21504,
          "time": 14.651154,
          "velocity": 0.5039370078740157
        },
        {
          "duration": 0.3488369999999996,
          "durationTicks": 512,
          "midi": 55,
          "name": "G3",
          "ticks": 21504,
          "time": 14.651154,
          "velocity": 0.5039370078740157
        },
        {
          "duration": 0.1744184999999998,
          "durationTicks": 256,
          "midi": 74,
          "name": "D5",
          "ticks": 21760,
          "time": 14.8255725,
          "velocity": 0.5039370078740157
        },
        {
          "duration": 0.1744185000000016,
          "durationTicks": 256,
          "midi": 72,
          "name": "C5",
          "ticks": 22016,
          "time": 14.999991,
          "velocity": 0.5039370078740157
        },
        {
          "duration": 0.3488370000000014,
          "durationTicks": 512,
          "midi": 52,
          "name": "E3",
          "ticks": 22016,
          "time": 14.999991,
          "velocity": 0.5039370078740157
        },
        {
          "duration": 0.1744184999999998,
          "durationTicks": 256,
          "midi": 76,
          "name": "E5",
          "ticks": 22272,
          "time": 15.174409500000001,
          "velocity": 0.5039370078740157
        },
        {
          "duration": 0.1744184999999998,
          "durationTicks": 256,
          "midi": 74,
          "name": "D5",
          "ticks": 22528,
          "time": 15.348828000000001,
          "velocity": 0.5039370078740157
        },
        {
          "duration": 0.5232554999999994,
          "durationTicks": 768,
          "midi": 47,
          "name": "B2",
          "ticks": 22528,
          "time": 15.348828000000001,
          "velocity": 0.5039370078740157
        },
        {
          "duration": 0.1744184999999998,
          "durationTicks": 256,
          "midi": 71,
          "name": "B4",
          "ticks": 22784,
          "time": 15.5232465,
          "velocity": 0.5039370078740157
        },
        {
          "duration": 0.1744184999999998,
          "durationTicks": 256,
          "midi": 72,
          "name": "C5",
          "ticks": 22784,
          "time": 15.5232465,
          "velocity": 0.4409448818897638
        },
        {
          "duration": 0.1744184999999998,
          "durationTicks": 256,
          "midi": 74,
          "name": "D5",
          "ticks": 23040,
          "time": 15.697665,
          "velocity": 0.5039370078740157
        },
        {
          "duration": 0.1744184999999998,
          "durationTicks": 256,
          "midi": 79,
          "name": "G5",
          "ticks": 23296,
          "time": 15.8720835,
          "velocity": 0.5039370078740157
        },
        {
          "duration": 0.1744184999999998,
          "durationTicks": 256,
          "midi": 48,
          "name": "C3",
          "ticks": 23296,
          "time": 15.8720835,
          "velocity": 0.5039370078740157
        },
        {
          "duration": 0.1744185000000016,
          "durationTicks": 256,
          "midi": 71,
          "name": "B4",
          "ticks": 23552,
          "time": 16.046502,
          "velocity": 0.5039370078740157
        },
        {
          "duration": 0.1744185000000016,
          "durationTicks": 256,
          "midi": 72,
          "name": "C5",
          "ticks": 23552,
          "time": 16.046502,
          "velocity": 0.4409448818897638
        },
        {
          "duration": 0.3488369999999996,
          "durationTicks": 512,
          "midi": 50,
          "name": "D3",
          "ticks": 23552,
          "time": 16.046502,
          "velocity": 0.5039370078740157
        },
        {
          "duration": 0.17441849999999803,
          "durationTicks": 256,
          "midi": 71,
          "name": "B4",
          "ticks": 23808,
          "time": 16.220920500000002,
          "velocity": 0.5039370078740157
        },
        {
          "duration": 0.1744185000000016,
          "durationTicks": 256,
          "midi": 69,
          "name": "A4",
          "ticks": 24064,
          "time": 16.395339,
          "velocity": 0.5039370078740157
        },
        {
          "duration": 0.3488369999999996,
          "durationTicks": 512,
          "midi": 38,
          "name": "D2",
          "ticks": 24064,
          "time": 16.395339,
          "velocity": 0.5039370078740157
        },
        {
          "duration": 0.17441849999999803,
          "durationTicks": 256,
          "midi": 67,
          "name": "G4",
          "ticks": 24320,
          "time": 16.5697575,
          "velocity": 0.5039370078740157
        },
        {
          "duration": 0.3488369999999996,
          "durationTicks": 512,
          "midi": 67,
          "name": "G4",
          "ticks": 24576,
          "time": 16.744176,
          "velocity": 0.5039370078740157
        },
        {
          "duration": 0.17441849999999803,
          "durationTicks": 256,
          "midi": 43,
          "name": "G2",
          "ticks": 24832,
          "time": 16.9185945,
          "velocity": 0.5039370078740157
        },
        {
          "duration": 0.1744185000000016,
          "durationTicks": 256,
          "midi": 45,
          "name": "A2",
          "ticks": 25088,
          "time": 17.093013,
          "velocity": 0.5039370078740157
        },
        {
          "duration": 0.17441849999999803,
          "durationTicks": 256,
          "midi": 47,
          "name": "B2",
          "ticks": 25344,
          "time": 17.2674315,
          "velocity": 0.5039370078740157
        },
        {
          "duration": 0.1744185000000016,
          "durationTicks": 256,
          "midi": 48,
          "name": "C3",
          "ticks": 25600,
          "time": 17.44185,
          "velocity": 0.5039370078740157
        },
        {
          "duration": 0.1744185000000016,
          "durationTicks": 256,
          "midi": 45,
          "name": "A2",
          "ticks": 25856,
          "time": 17.6162685,
          "velocity": 0.5039370078740157
        },
        {
          "duration": 0.17441849999999803,
          "durationTicks": 256,
          "midi": 47,
          "name": "B2",
          "ticks": 26112,
          "time": 17.790687000000002,
          "velocity": 0.5039370078740157
        },
        {
          "duration": 0.1744185000000016,
          "durationTicks": 256,
          "midi": 43,
          "name": "G2",
          "ticks": 26368,
          "time": 17.9651055,
          "velocity": 0.5039370078740157
        },
        {
          "duration": 0.3488369999999996,
          "durationTicks": 512,
          "midi": 50,
          "name": "D3",
          "ticks": 26624,
          "time": 18.139524,
          "velocity": 0.5039370078740157
        },
        {
          "duration": 0.1744185000000016,
          "durationTicks": 256,
          "midi": 67,
          "name": "G4",
          "ticks": 26880,
          "time": 18.3139425,
          "velocity": 0.5039370078740157
        },
        {
          "duration": 0.17441849999999803,
          "durationTicks": 256,
          "midi": 69,
          "name": "A4",
          "ticks": 27136,
          "time": 18.488361,
          "velocity": 0.5039370078740157
        },
        {
          "duration": 0.3488369999999996,
          "durationTicks": 512,
          "midi": 55,
          "name": "G3",
          "ticks": 27136,
          "time": 18.488361,
          "velocity": 0.5039370078740157
        },
        {
          "duration": 0.1744185000000016,
          "durationTicks": 256,
          "midi": 71,
          "name": "B4",
          "ticks": 27392,
          "time": 18.6627795,
          "velocity": 0.5039370078740157
        },
        {
          "duration": 0.17441849999999803,
          "durationTicks": 256,
          "midi": 72,
          "name": "C5",
          "ticks": 27648,
          "time": 18.837198,
          "velocity": 0.5039370078740157
        },
        {
          "duration": 0.3488369999999996,
          "durationTicks": 512,
          "midi": 54,
          "name": "F#3",
          "ticks": 27648,
          "time": 18.837198,
          "velocity": 0.5039370078740157
        },
        {
          "duration": 0.1744185000000016,
          "durationTicks": 256,
          "midi": 69,
          "name": "A4",
          "ticks": 27904,
          "time": 19.0116165,
          "velocity": 0.5039370078740157
        },
        {
          "duration": 0.1744185000000016,
          "durationTicks": 256,
          "midi": 71,
          "name": "B4",
          "ticks": 28160,
          "time": 19.186035,
          "velocity": 0.5039370078740157
        },
        {
          "duration": 0.3488369999999996,
          "durationTicks": 512,
          "midi": 55,
          "name": "G3",
          "ticks": 28160,
          "time": 19.186035,
          "velocity": 0.5039370078740157
        },
        {
          "duration": 0.17441849999999803,
          "durationTicks": 256,
          "midi": 67,
          "name": "G4",
          "ticks": 28416,
          "time": 19.360453500000002,
          "velocity": 0.5039370078740157
        },
        {
          "duration": 0.3488369999999996,
          "durationTicks": 512,
          "midi": 66,
          "name": "F#4",
          "ticks": 28672,
          "time": 19.534872,
          "velocity": 0.5039370078740157
        },
        {
          "duration": 0.1744185000000016,
          "durationTicks": 256,
          "midi": 57,
          "name": "A3",
          "ticks": 28672,
          "time": 19.534872,
          "velocity": 0.5039370078740157
        },
        {
          "duration": 0.17441849999999803,
          "durationTicks": 256,
          "midi": 50,
          "name": "D3",
          "ticks": 28928,
          "time": 19.7092905,
          "velocity": 0.5039370078740157
        },
        {
          "duration": 0.1744185000000016,
          "durationTicks": 256,
          "midi": 52,
          "name": "E3",
          "ticks": 29184,
          "time": 19.883709,
          "velocity": 0.5039370078740157
        },
        {
          "duration": 0.17441849999999803,
          "durationTicks": 256,
          "midi": 54,
          "name": "F#3",
          "ticks": 29440,
          "time": 20.0581275,
          "velocity": 0.5039370078740157
        },
        {
          "duration": 0.1744185000000016,
          "durationTicks": 256,
          "midi": 55,
          "name": "G3",
          "ticks": 29696,
          "time": 20.232546,
          "velocity": 0.5039370078740157
        },
        {
          "duration": 0.17441849999999803,
          "durationTicks": 256,
          "midi": 52,
          "name": "E3",
          "ticks": 29952,
          "time": 20.4069645,
          "velocity": 0.5039370078740157
        },
        {
          "duration": 0.1744185000000016,
          "durationTicks": 256,
          "midi": 54,
          "name": "F#3",
          "ticks": 30208,
          "time": 20.581383,
          "velocity": 0.5039370078740157
        },
        {
          "duration": 0.1744185000000016,
          "durationTicks": 256,
          "midi": 50,
          "name": "D3",
          "ticks": 30464,
          "time": 20.7558015,
          "velocity": 0.5039370078740157
        },
        {
          "duration": 0.3488369999999996,
          "durationTicks": 512,
          "midi": 57,
          "name": "A3",
          "ticks": 30720,
          "time": 20.930220000000002,
          "velocity": 0.5039370078740157
        },
        {
          "duration": 0.1744185000000016,
          "durationTicks": 256,
          "midi": 69,
          "name": "A4",
          "ticks": 30976,
          "time": 21.1046385,
          "velocity": 0.5039370078740157
        },
        {
          "duration": 0.17441849999999803,
          "durationTicks": 256,
          "midi": 71,
          "name": "B4",
          "ticks": 31232,
          "time": 21.279057,
          "velocity": 0.5039370078740157
        },
        {
          "duration": 0.3488369999999996,
          "durationTicks": 512,
          "midi": 62,
          "name": "D4",
          "ticks": 31232,
          "time": 21.279057,
          "velocity": 0.5039370078740157
        },
        {
          "duration": 0.1744185000000016,
          "durationTicks": 256,
          "midi": 72,
          "name": "C5",
          "ticks": 31488,
          "time": 21.4534755,
          "velocity": 0.5039370078740157
        },
        {
          "duration": 0.17441849999999803,
          "durationTicks": 256,
          "midi": 74,
          "name": "D5",
          "ticks": 31744,
          "time": 21.627894,
          "velocity": 0.5039370078740157
        },
        {
          "duration": 0.3488369999999996,
          "durationTicks": 512,
          "midi": 60,
          "name": "C4",
          "ticks": 31744,
          "time": 21.627894,
          "velocity": 0.5039370078740157
        },
        {
          "duration": 0.1744185000000016,
          "durationTicks": 256,
          "midi": 71,
          "name": "B4",
          "ticks": 32000,
          "time": 21.8023125,
          "velocity": 0.5039370078740157
        },
        {
          "duration": 0.17441849999999803,
          "durationTicks": 256,
          "midi": 72,
          "name": "C5",
          "ticks": 32256,
          "time": 21.976731,
          "velocity": 0.5039370078740157
        },
        {
          "duration": 0.3488369999999996,
          "durationTicks": 512,
          "midi": 62,
          "name": "D4",
          "ticks": 32256,
          "time": 21.976731,
          "velocity": 0.5039370078740157
        },
        {
          "duration": 0.1744185000000016,
          "durationTicks": 256,
          "midi": 69,
          "name": "A4",
          "ticks": 32512,
          "time": 22.1511495,
          "velocity": 0.5039370078740157
        },
        {
          "duration": 0.3488369999999996,
          "durationTicks": 512,
          "midi": 71,
          "name": "B4",
          "ticks": 32768,
          "time": 22.325568,
          "velocity": 0.5039370078740157
        },
        {
          "duration": 0.1744185000000016,
          "durationTicks": 256,
          "midi": 55,
          "name": "G3",
          "ticks": 32768,
          "time": 22.325568,
          "velocity": 0.5039370078740157
        },
        {
          "duration": 0.17441849999999803,
          "durationTicks": 256,
          "midi": 67,
          "name": "G4",
          "ticks": 33024,
          "time": 22.499986500000002,
          "velocity": 0.5039370078740157
        },
        {
          "duration": 0.1744185000000016,
          "durationTicks": 256,
          "midi": 65,
          "name": "F4",
          "ticks": 33280,
          "time": 22.674405,
          "velocity": 0.5039370078740157
        },
        {
          "duration": 0.17441849999999803,
          "durationTicks": 256,
          "midi": 64,
          "name": "E4",
          "ticks": 33536,
          "time": 22.8488235,
          "velocity": 0.5039370078740157
        },
        {
          "duration": 0.1744185000000016,
          "durationTicks": 256,
          "midi": 62,
          "name": "D4",
          "ticks": 33792,
          "time": 23.023242,
          "velocity": 0.5039370078740157
        },
        {
          "duration": 0.17441849999999803,
          "durationTicks": 256,
          "midi": 65,
          "name": "F4",
          "ticks": 34048,
          "time": 23.1976605,
          "velocity": 0.5039370078740157
        },
        {
          "duration": 0.1744185000000016,
          "durationTicks": 256,
          "midi": 64,
          "name": "E4",
          "ticks": 34304,
          "time": 23.372079,
          "velocity": 0.5039370078740157
        },
        {
          "duration": 0.17441849999999803,
          "durationTicks": 256,
          "midi": 67,
          "name": "G4",
          "ticks": 34560,
          "time": 23.5464975,
          "velocity": 0.5039370078740157
        },
        {
          "duration": 0.3488370000000032,
          "durationTicks": 512,
          "midi": 65,
          "name": "F4",
          "ticks": 34816,
          "time": 23.720916,
          "velocity": 0.5039370078740157
        },
        {
          "duration": 0.1744185000000016,
          "durationTicks": 256,
          "midi": 74,
          "name": "D5",
          "ticks": 35072,
          "time": 23.8953345,
          "velocity": 0.5039370078740157
        },
        {
          "duration": 0.17441849999999803,
          "durationTicks": 256,
          "midi": 72,
          "name": "C5",
          "ticks": 35328,
          "time": 24.069753000000002,
          "velocity": 0.5039370078740157
        },
        {
          "duration": 0.3488369999999996,
          "durationTicks": 512,
          "midi": 64,
          "name": "E4",
          "ticks": 35328,
          "time": 24.069753000000002,
          "velocity": 0.5039370078740157
        },
        {
          "duration": 0.1744185000000016,
          "durationTicks": 256,
          "midi": 71,
          "name": "B4",
          "ticks": 35584,
          "time": 24.2441715,
          "velocity": 0.5039370078740157
        },
        {
          "duration": 0.17441849999999803,
          "durationTicks": 256,
          "midi": 69,
          "name": "A4",
          "ticks": 35840,
          "time": 24.418590000000002,
          "velocity": 0.5039370078740157
        },
        {
          "duration": 0.3488369999999996,
          "durationTicks": 512,
          "midi": 65,
          "name": "F4",
          "ticks": 35840,
          "time": 24.418590000000002,
          "velocity": 0.5039370078740157
        },
        {
          "duration": 0.1744185000000016,
          "durationTicks": 256,
          "midi": 72,
          "name": "C5",
          "ticks": 36096,
          "time": 24.5930085,
          "velocity": 0.5039370078740157
        },
        {
          "duration": 0.17441849999999803,
          "durationTicks": 256,
          "midi": 71,
          "name": "B4",
          "ticks": 36352,
          "time": 24.767427,
          "velocity": 0.5039370078740157
        },
        {
          "duration": 0.3488369999999996,
          "durationTicks": 512,
          "midi": 62,
          "name": "D4",
          "ticks": 36352,
          "time": 24.767427,
          "velocity": 0.5039370078740157
        },
        {
          "duration": 0.1744185000000016,
          "durationTicks": 256,
          "midi": 74,
          "name": "D5",
          "ticks": 36608,
          "time": 24.9418455,
          "velocity": 0.5039370078740157
        },
        {
          "duration": 0.3488369999999996,
          "durationTicks": 512,
          "midi": 72,
          "name": "C5",
          "ticks": 36864,
          "time": 25.116264,
          "velocity": 0.5039370078740157
        },
        {
          "duration": 0.17441849999999803,
          "durationTicks": 256,
          "midi": 64,
          "name": "E4",
          "ticks": 36864,
          "time": 25.116264,
          "velocity": 0.5039370078740157
        },
        {
          "duration": 0.1744185000000016,
          "durationTicks": 256,
          "midi": 69,
          "name": "A4",
          "ticks": 37120,
          "time": 25.2906825,
          "velocity": 0.5039370078740157
        },
        {
          "duration": 0.1744185000000016,
          "durationTicks": 256,
          "midi": 67,
          "name": "G4",
          "ticks": 37376,
          "time": 25.465101,
          "velocity": 0.5039370078740157
        },
        {
          "duration": 0.17441849999999803,
          "durationTicks": 256,
          "midi": 65,
          "name": "F4",
          "ticks": 37632,
          "time": 25.639519500000002,
          "velocity": 0.5039370078740157
        },
        {
          "duration": 0.1744185000000016,
          "durationTicks": 256,
          "midi": 64,
          "name": "E4",
          "ticks": 37888,
          "time": 25.813938,
          "velocity": 0.5039370078740157
        },
        {
          "duration": 0.17441849999999803,
          "durationTicks": 256,
          "midi": 67,
          "name": "G4",
          "ticks": 38144,
          "time": 25.988356500000002,
          "velocity": 0.5039370078740157
        },
        {
          "duration": 0.1744185000000016,
          "durationTicks": 256,
          "midi": 65,
          "name": "F4",
          "ticks": 38400,
          "time": 26.162775,
          "velocity": 0.5039370078740157
        },
        {
          "duration": 0.17441849999999803,
          "durationTicks": 256,
          "midi": 69,
          "name": "A4",
          "ticks": 38656,
          "time": 26.3371935,
          "velocity": 0.5039370078740157
        },
        {
          "duration": 0.3488369999999996,
          "durationTicks": 512,
          "midi": 67,
          "name": "G4",
          "ticks": 38912,
          "time": 26.511612,
          "velocity": 0.5039370078740157
        },
        {
          "duration": 0.17441849999999803,
          "durationTicks": 256,
          "midi": 76,
          "name": "E5",
          "ticks": 39168,
          "time": 26.6860305,
          "velocity": 0.5039370078740157
        },
        {
          "duration": 0.1744185000000016,
          "durationTicks": 256,
          "midi": 74,
          "name": "D5",
          "ticks": 39424,
          "time": 26.860449,
          "velocity": 0.5039370078740157
        },
        {
          "duration": 0.3488370000000032,
          "durationTicks": 512,
          "midi": 65,
          "name": "F4",
          "ticks": 39424,
          "time": 26.860449,
          "velocity": 0.5039370078740157
        },
        {
          "duration": 0.1744185000000016,
          "durationTicks": 256,
          "midi": 72,
          "name": "C5",
          "ticks": 39680,
          "time": 27.0348675,
          "velocity": 0.5039370078740157
        },
        {
          "duration": 0.17441849999999803,
          "durationTicks": 256,
          "midi": 71,
          "name": "B4",
          "ticks": 39936,
          "time": 27.209286000000002,
          "velocity": 0.5039370078740157
        },
        {
          "duration": 0.3488369999999996,
          "durationTicks": 512,
          "midi": 67,
          "name": "G4",
          "ticks": 39936,
          "time": 27.209286000000002,
          "velocity": 0.5039370078740157
        },
        {
          "duration": 0.1744185000000016,
          "durationTicks": 256,
          "midi": 74,
          "name": "D5",
          "ticks": 40192,
          "time": 27.3837045,
          "velocity": 0.5039370078740157
        },
        {
          "duration": 0.17441849999999803,
          "durationTicks": 256,
          "midi": 73,
          "name": "C#5",
          "ticks": 40448,
          "time": 27.558123000000002,
          "velocity": 0.5039370078740157
        },
        {
          "duration": 0.3488369999999996,
          "durationTicks": 512,
          "midi": 64,
          "name": "E4",
          "ticks": 40448,
          "time": 27.558123000000002,
          "velocity": 0.5039370078740157
        },
        {
          "duration": 0.1744185000000016,
          "durationTicks": 256,
          "midi": 76,
          "name": "E5",
          "ticks": 40704,
          "time": 27.7325415,
          "velocity": 0.5039370078740157
        },
        {
          "duration": 0.3488369999999996,
          "durationTicks": 512,
          "midi": 74,
          "name": "D5",
          "ticks": 40960,
          "time": 27.90696,
          "velocity": 0.5039370078740157
        },
        {
          "duration": 0.17441849999999803,
          "durationTicks": 256,
          "midi": 65,
          "name": "F4",
          "ticks": 40960,
          "time": 27.90696,
          "velocity": 0.5039370078740157
        },
        {
          "duration": 0.1744185000000016,
          "durationTicks": 256,
          "midi": 70,
          "name": "A#4",
          "ticks": 41216,
          "time": 28.0813785,
          "velocity": 0.5039370078740157
        },
        {
          "duration": 0.3488369999999996,
          "durationTicks": 512,
          "midi": 73,
          "name": "C#5",
          "ticks": 41472,
          "time": 28.255797,
          "velocity": 0.5039370078740157
        },
        {
          "duration": 0.17441849999999803,
          "durationTicks": 256,
          "midi": 69,
          "name": "A4",
          "ticks": 41472,
          "time": 28.255797,
          "velocity": 0.5039370078740157
        },
        {
          "duration": 0.1744185000000016,
          "durationTicks": 256,
          "midi": 67,
          "name": "G4",
          "ticks": 41728,
          "time": 28.4302155,
          "velocity": 0.5039370078740157
        },
        {
          "duration": 0.3488369999999996,
          "durationTicks": 512,
          "midi": 74,
          "name": "D5",
          "ticks": 41984,
          "time": 28.604634,
          "velocity": 0.5039370078740157
        },
        {
          "duration": 0.1744185000000016,
          "durationTicks": 256,
          "midi": 65,
          "name": "F4",
          "ticks": 41984,
          "time": 28.604634,
          "velocity": 0.5039370078740157
        },
        {
          "duration": 0.17441849999999803,
          "durationTicks": 256,
          "midi": 69,
          "name": "A4",
          "ticks": 42240,
          "time": 28.779052500000002,
          "velocity": 0.5039370078740157
        },
        {
          "duration": 0.3488369999999996,
          "durationTicks": 512,
          "midi": 76,
          "name": "E5",
          "ticks": 42496,
          "time": 28.953471,
          "velocity": 0.5039370078740157
        },
        {
          "duration": 0.1744185000000016,
          "durationTicks": 256,
          "midi": 67,
          "name": "G4",
          "ticks": 42496,
          "time": 28.953471,
          "velocity": 0.5039370078740157
        },
        {
          "duration": 0.17441849999999803,
          "durationTicks": 256,
          "midi": 70,
          "name": "A#4",
          "ticks": 42752,
          "time": 29.127889500000002,
          "velocity": 0.5039370078740157
        },
        {
          "duration": 0.3488369999999996,
          "durationTicks": 512,
          "midi": 77,
          "name": "F5",
          "ticks": 43008,
          "time": 29.302308,
          "velocity": 0.5039370078740157
        },
        {
          "duration": 0.1744185000000016,
          "durationTicks": 256,
          "midi": 69,
          "name": "A4",
          "ticks": 43008,
          "time": 29.302308,
          "velocity": 0.5039370078740157
        },
        {
          "duration": 0.17441849999999803,
          "durationTicks": 256,
          "midi": 67,
          "name": "G4",
          "ticks": 43264,
          "time": 29.4767265,
          "velocity": 0.5039370078740157
        },
        {
          "duration": 0.3488369999999996,
          "durationTicks": 512,
          "midi": 69,
          "name": "A4",
          "ticks": 43520,
          "time": 29.651145,
          "velocity": 0.5039370078740157
        },
        {
          "duration": 0.1744185000000016,
          "durationTicks": 256,
          "midi": 65,
          "name": "F4",
          "ticks": 43520,
          "time": 29.651145,
          "velocity": 0.5039370078740157
        },
        {
          "duration": 0.17441849999999803,
          "durationTicks": 256,
          "midi": 64,
          "name": "E4",
          "ticks": 43776,
          "time": 29.8255635,
          "velocity": 0.5039370078740157
        },
        {
          "duration": 0.3488370000000032,
          "durationTicks": 512,
          "midi": 71,
          "name": "B4",
          "ticks": 44032,
          "time": 29.999982,
          "velocity": 0.5039370078740157
        },
        {
          "duration": 0.1744185000000016,
          "durationTicks": 256,
          "midi": 62,
          "name": "D4",
          "ticks": 44032,
          "time": 29.999982,
          "velocity": 0.5039370078740157
        },
        {
          "duration": 0.1744185000000016,
          "durationTicks": 256,
          "midi": 65,
          "name": "F4",
          "ticks": 44288,
          "time": 30.1744005,
          "velocity": 0.5039370078740157
        },
        {
          "duration": 0.3488369999999996,
          "durationTicks": 512,
          "midi": 73,
          "name": "C#5",
          "ticks": 44544,
          "time": 30.348819000000002,
          "velocity": 0.5039370078740157
        },
        {
          "duration": 0.17441849999999803,
          "durationTicks": 256,
          "midi": 64,
          "name": "E4",
          "ticks": 44544,
          "time": 30.348819000000002,
          "velocity": 0.5039370078740157
        },
        {
          "duration": 0.1744185000000016,
          "durationTicks": 256,
          "midi": 67,
          "name": "G4",
          "ticks": 44800,
          "time": 30.5232375,
          "velocity": 0.5039370078740157
        },
        {
          "duration": 0.3488369999999996,
          "durationTicks": 512,
          "midi": 74,
          "name": "D5",
          "ticks": 45056,
          "time": 30.697656000000002,
          "velocity": 0.5039370078740157
        },
        {
          "duration": 0.17441849999999803,
          "durationTicks": 256,
          "midi": 65,
          "name": "F4",
          "ticks": 45056,
          "time": 30.697656000000002,
          "velocity": 0.5039370078740157
        },
        {
          "duration": 0.1744185000000016,
          "durationTicks": 256,
          "midi": 64,
          "name": "E4",
          "ticks": 45312,
          "time": 30.8720745,
          "velocity": 0.5039370078740157
        },
        {
          "duration": 0.3488369999999996,
          "durationTicks": 512,
          "midi": 66,
          "name": "F#4",
          "ticks": 45568,
          "time": 31.046493,
          "velocity": 0.5039370078740157
        },
        {
          "duration": 0.17441849999999803,
          "durationTicks": 256,
          "midi": 62,
          "name": "D4",
          "ticks": 45568,
          "time": 31.046493,
          "velocity": 0.5039370078740157
        },
        {
          "duration": 0.1744185000000016,
          "durationTicks": 256,
          "midi": 60,
          "name": "C4",
          "ticks": 45824,
          "time": 31.2209115,
          "velocity": 0.5039370078740157
        },
        {
          "duration": 0.3488369999999996,
          "durationTicks": 512,
          "midi": 68,
          "name": "G#4",
          "ticks": 46080,
          "time": 31.39533,
          "velocity": 0.5039370078740157
        },
        {
          "duration": 0.17441849999999803,
          "durationTicks": 256,
          "midi": 59,
          "name": "B3",
          "ticks": 46080,
          "time": 31.39533,
          "velocity": 0.5039370078740157
        },
        {
          "duration": 0.1744185000000016,
          "durationTicks": 256,
          "midi": 62,
          "name": "D4",
          "ticks": 46336,
          "time": 31.5697485,
          "velocity": 0.5039370078740157
        },
        {
          "duration": 0.3488369999999996,
          "durationTicks": 512,
          "midi": 69,
          "name": "A4",
          "ticks": 46592,
          "time": 31.744167,
          "velocity": 0.5039370078740157
        },
        {
          "duration": 0.1744185000000016,
          "durationTicks": 256,
          "midi": 60,
          "name": "C4",
          "ticks": 46592,
          "time": 31.744167,
          "velocity": 0.5039370078740157
        },
        {
          "duration": 0.17441849999999803,
          "durationTicks": 256,
          "midi": 64,
          "name": "E4",
          "ticks": 46848,
          "time": 31.918585500000002,
          "velocity": 0.5039370078740157
        },
        {
          "duration": 0.3488370000000032,
          "durationTicks": 512,
          "midi": 71,
          "name": "B4",
          "ticks": 47104,
          "time": 32.093004,
          "velocity": 0.5039370078740157
        },
        {
          "duration": 0.1744185000000016,
          "durationTicks": 256,
          "midi": 62,
          "name": "D4",
          "ticks": 47104,
          "time": 32.093004,
          "velocity": 0.5039370078740157
        },
        {
          "duration": 0.1744185000000016,
          "durationTicks": 256,
          "midi": 60,
          "name": "C4",
          "ticks": 47360,
          "time": 32.2674225,
          "velocity": 0.5039370078740157
        },
        {
          "duration": 0.34883699999999607,
          "durationTicks": 512,
          "midi": 72,
          "name": "C5",
          "ticks": 47616,
          "time": 32.441841000000004,
          "velocity": 0.5039370078740157
        },
        {
          "duration": 0.17441849999999448,
          "durationTicks": 256,
          "midi": 59,
          "name": "B3",
          "ticks": 47616,
          "time": 32.441841000000004,
          "velocity": 0.5039370078740157
        },
        {
          "duration": 0.1744185000000016,
          "durationTicks": 256,
          "midi": 57,
          "name": "A3",
          "ticks": 47872,
          "time": 32.6162595,
          "velocity": 0.5039370078740157
        },
        {
          "duration": 0.6976739999999992,
          "durationTicks": 1024,
          "midi": 74,
          "name": "D5",
          "ticks": 48128,
          "time": 32.790678,
          "velocity": 0.5039370078740157
        },
        {
          "duration": 0.1744185000000016,
          "durationTicks": 256,
          "midi": 56,
          "name": "G#3",
          "ticks": 48128,
          "time": 32.790678,
          "velocity": 0.5039370078740157
        },
        {
          "duration": 0.1744185000000016,
          "durationTicks": 256,
          "midi": 59,
          "name": "B3",
          "ticks": 48384,
          "time": 32.9650965,
          "velocity": 0.5039370078740157
        },
        {
          "duration": 0.17441849999999448,
          "durationTicks": 256,
          "midi": 57,
          "name": "A3",
          "ticks": 48640,
          "time": 33.139515,
          "velocity": 0.5039370078740157
        },
        {
          "duration": 0.1744185000000016,
          "durationTicks": 256,
          "midi": 60,
          "name": "C4",
          "ticks": 48896,
          "time": 33.3139335,
          "velocity": 0.5039370078740157
        },
        {
          "duration": 0.3488370000000032,
          "durationTicks": 512,
          "midi": 59,
          "name": "B3",
          "ticks": 49152,
          "time": 33.488352,
          "velocity": 0.5039370078740157
        },
        {
          "duration": 0.1744185000000016,
          "durationTicks": 256,
          "midi": 64,
          "name": "E4",
          "ticks": 49408,
          "time": 33.6627705,
          "velocity": 0.5039370078740157
        },
        {
          "duration": 0.1744185000000016,
          "durationTicks": 256,
          "midi": 66,
          "name": "F#4",
          "ticks": 49664,
          "time": 33.837189,
          "velocity": 0.5039370078740157
        },
        {
          "duration": 0.34883699999999607,
          "durationTicks": 512,
          "midi": 52,
          "name": "E3",
          "ticks": 49664,
          "time": 33.837189,
          "velocity": 0.5039370078740157
        },
        {
          "duration": 0.17441849999999448,
          "durationTicks": 256,
          "midi": 68,
          "name": "G#4",
          "ticks": 49920,
          "time": 34.011607500000004,
          "velocity": 0.5039370078740157
        },
        {
          "duration": 0.1744185000000016,
          "durationTicks": 256,
          "midi": 69,
          "name": "A4",
          "ticks": 50176,
          "time": 34.186026,
          "velocity": 0.5039370078740157
        },
        {
          "duration": 0.1744185000000016,
          "durationTicks": 256,
          "midi": 62,
          "name": "D4",
          "ticks": 50176,
          "time": 34.186026,
          "velocity": 0.5039370078740157
        },
        {
          "duration": 0.1744185000000016,
          "durationTicks": 256,
          "midi": 60,
          "name": "C4",
          "ticks": 50176,
          "time": 34.186026,
          "velocity": 0.5039370078740157
        },
        {
          "duration": 0.1744185000000016,
          "durationTicks": 256,
          "midi": 66,
          "name": "F#4",
          "ticks": 50432,
          "time": 34.3604445,
          "velocity": 0.5039370078740157
        },
        {
          "duration": 0.3488370000000032,
          "durationTicks": 512,
          "midi": 62,
          "name": "D4",
          "ticks": 50432,
          "time": 34.3604445,
          "velocity": 0.5039370078740157
        },
        {
          "duration": 0.1744185000000016,
          "durationTicks": 256,
          "midi": 68,
          "name": "G#4",
          "ticks": 50688,
          "time": 34.534863,
          "velocity": 0.5039370078740157
        },
        {
          "duration": 0.17441849999999448,
          "durationTicks": 256,
          "midi": 64,
          "name": "E4",
          "ticks": 50944,
          "time": 34.7092815,
          "velocity": 0.5039370078740157
        },
        {
          "duration": 0.1744185000000016,
          "durationTicks": 256,
          "midi": 76,
          "name": "E5",
          "ticks": 51200,
          "time": 34.8837,
          "velocity": 0.5039370078740157
        },
        {
          "duration": 0.1744185000000016,
          "durationTicks": 256,
          "midi": 60,
          "name": "C4",
          "ticks": 51200,
          "time": 34.8837,
          "velocity": 0.5039370078740157
        },
        {
          "duration": 0.1744185000000016,
          "durationTicks": 256,
          "midi": 74,
          "name": "D5",
          "ticks": 51456,
          "time": 35.0581185,
          "velocity": 0.5039370078740157
        },
        {
          "duration": 0.1744185000000016,
          "durationTicks": 256,
          "midi": 59,
          "name": "B3",
          "ticks": 51456,
          "time": 35.0581185,
          "velocity": 0.5039370078740157
        },
        {
          "duration": 0.1744185000000016,
          "durationTicks": 256,
          "midi": 72,
          "name": "C5",
          "ticks": 51712,
          "time": 35.232537,
          "velocity": 0.5039370078740157
        },
        {
          "duration": 0.1744185000000016,
          "durationTicks": 256,
          "midi": 57,
          "name": "A3",
          "ticks": 51712,
          "time": 35.232537,
          "velocity": 0.5039370078740157
        },
        {
          "duration": 0.1744185000000016,
          "durationTicks": 256,
          "midi": 76,
          "name": "E5",
          "ticks": 51968,
          "time": 35.4069555,
          "velocity": 0.5039370078740157
        },
        {
          "duration": 0.1744185000000016,
          "durationTicks": 256,
          "midi": 55,
          "name": "G3",
          "ticks": 51968,
          "time": 35.4069555,
          "velocity": 0.5039370078740157
        },
        {
          "duration": 0.17441849999999448,
          "durationTicks": 256,
          "midi": 74,
          "name": "D5",
          "ticks": 52224,
          "time": 35.581374000000004,
          "velocity": 0.5039370078740157
        },
        {
          "duration": 0.17441849999999448,
          "durationTicks": 256,
          "midi": 54,
          "name": "F#3",
          "ticks": 52224,
          "time": 35.581374000000004,
          "velocity": 0.5039370078740157
        },
        {
          "duration": 0.1744185000000016,
          "durationTicks": 256,
          "midi": 72,
          "name": "C5",
          "ticks": 52480,
          "time": 35.7557925,
          "velocity": 0.5039370078740157
        },
        {
          "duration": 0.1744185000000016,
          "durationTicks": 256,
          "midi": 57,
          "name": "A3",
          "ticks": 52480,
          "time": 35.7557925,
          "velocity": 0.5039370078740157
        },
        {
          "duration": 0.1744185000000016,
          "durationTicks": 256,
          "midi": 71,
          "name": "B4",
          "ticks": 52736,
          "time": 35.930211,
          "velocity": 0.5039370078740157
        },
        {
          "duration": 0.1744185000000016,
          "durationTicks": 256,
          "midi": 56,
          "name": "G#3",
          "ticks": 52736,
          "time": 35.930211,
          "velocity": 0.5039370078740157
        },
        {
          "duration": 0.1744185000000016,
          "durationTicks": 256,
          "midi": 74,
          "name": "D5",
          "ticks": 52992,
          "time": 36.1046295,
          "velocity": 0.5039370078740157
        },
        {
          "duration": 0.1744185000000016,
          "durationTicks": 256,
          "midi": 59,
          "name": "B3",
          "ticks": 52992,
          "time": 36.1046295,
          "velocity": 0.5039370078740157
        },
        {
          "duration": 0.17441849999999448,
          "durationTicks": 256,
          "midi": 72,
          "name": "C5",
          "ticks": 53248,
          "time": 36.279048,
          "velocity": 0.5039370078740157
        },
        {
          "duration": 0.17441849999999448,
          "durationTicks": 256,
          "midi": 57,
          "name": "A3",
          "ticks": 53248,
          "time": 36.279048,
          "velocity": 0.5039370078740157
        },
        {
          "duration": 0.1744185000000016,
          "durationTicks": 256,
          "midi": 81,
          "name": "A5",
          "ticks": 53504,
          "time": 36.4534665,
          "velocity": 0.5039370078740157
        },
        {
          "duration": 0.1744185000000016,
          "durationTicks": 256,
          "midi": 60,
          "name": "C4",
          "ticks": 53504,
          "time": 36.4534665,
          "velocity": 0.5039370078740157
        },
        {
          "duration": 0.1744185000000016,
          "durationTicks": 256,
          "midi": 80,
          "name": "G#5",
          "ticks": 53760,
          "time": 36.627885,
          "velocity": 0.5039370078740157
        },
        {
          "duration": 0.1744185000000016,
          "durationTicks": 256,
          "midi": 59,
          "name": "B3",
          "ticks": 53760,
          "time": 36.627885,
          "velocity": 0.5039370078740157
        },
        {
          "duration": 0.1744185000000016,
          "durationTicks": 256,
          "midi": 83,
          "name": "B5",
          "ticks": 54016,
          "time": 36.8023035,
          "velocity": 0.5039370078740157
        },
        {
          "duration": 0.1744185000000016,
          "durationTicks": 256,
          "midi": 62,
          "name": "D4",
          "ticks": 54016,
          "time": 36.8023035,
          "velocity": 0.5039370078740157
        },
        {
          "duration": 0.1744185000000016,
          "durationTicks": 256,
          "midi": 81,
          "name": "A5",
          "ticks": 54272,
          "time": 36.976722,
          "velocity": 0.5039370078740157
        },
        {
          "duration": 0.1744185000000016,
          "durationTicks": 256,
          "midi": 60,
          "name": "C4",
          "ticks": 54272,
          "time": 36.976722,
          "velocity": 0.5039370078740157
        },
        {
          "duration": 0.17441849999999448,
          "durationTicks": 256,
          "midi": 76,
          "name": "E5",
          "ticks": 54528,
          "time": 37.151140500000004,
          "velocity": 0.5039370078740157
        },
        {
          "duration": 0.17441849999999448,
          "durationTicks": 256,
          "midi": 64,
          "name": "E4",
          "ticks": 54528,
          "time": 37.151140500000004,
          "velocity": 0.5039370078740157
        },
        {
          "duration": 0.1744185000000016,
          "durationTicks": 256,
          "midi": 77,
          "name": "F5",
          "ticks": 54784,
          "time": 37.325559,
          "velocity": 0.5039370078740157
        },
        {
          "duration": 0.1744185000000016,
          "durationTicks": 256,
          "midi": 62,
          "name": "D4",
          "ticks": 54784,
          "time": 37.325559,
          "velocity": 0.5039370078740157
        },
        {
          "duration": 0.1744185000000016,
          "durationTicks": 256,
          "midi": 74,
          "name": "D5",
          "ticks": 55040,
          "time": 37.4999775,
          "velocity": 0.5039370078740157
        },
        {
          "duration": 0.1744185000000016,
          "durationTicks": 256,
          "midi": 65,
          "name": "F4",
          "ticks": 55040,
          "time": 37.4999775,
          "velocity": 0.5039370078740157
        },
        {
          "duration": 0.1744185000000016,
          "durationTicks": 256,
          "midi": 68,
          "name": "G#4",
          "ticks": 55296,
          "time": 37.674396,
          "velocity": 0.5039370078740157
        },
        {
          "duration": 0.34883699999999607,
          "durationTicks": 512,
          "midi": 64,
          "name": "E4",
          "ticks": 55296,
          "time": 37.674396,
          "velocity": 0.5039370078740157
        },
        {
          "duration": 0.17441849999999448,
          "durationTicks": 256,
          "midi": 77,
          "name": "F5",
          "ticks": 55552,
          "time": 37.8488145,
          "velocity": 0.5039370078740157
        },
        {
          "duration": 0.1744185000000016,
          "durationTicks": 256,
          "midi": 76,
          "name": "E5",
          "ticks": 55808,
          "time": 38.023233,
          "velocity": 0.5039370078740157
        },
        {
          "duration": 0.3488370000000032,
          "durationTicks": 512,
          "midi": 57,
          "name": "A3",
          "ticks": 55808,
          "time": 38.023233,
          "velocity": 0.5039370078740157
        },
        {
          "duration": 0.1744185000000016,
          "durationTicks": 256,
          "midi": 74,
          "name": "D5",
          "ticks": 56064,
          "time": 38.1976515,
          "velocity": 0.5039370078740157
        },
        {
          "duration": 0.1744185000000016,
          "durationTicks": 256,
          "midi": 72,
          "name": "C5",
          "ticks": 56320,
          "time": 38.37207,
          "velocity": 0.5039370078740157
        },
        {
          "duration": 0.1744185000000016,
          "durationTicks": 256,
          "midi": 74,
          "name": "D5",
          "ticks": 56320,
          "time": 38.37207,
          "velocity": 0.5039370078740157
        },
        {
          "duration": 0.3488370000000032,
          "durationTicks": 512,
          "midi": 64,
          "name": "E4",
          "ticks": 56320,
          "time": 38.37207,
          "velocity": 0.5039370078740157
        },
        {
          "duration": 0.1744185000000016,
          "durationTicks": 256,
          "midi": 72,
          "name": "C5",
          "ticks": 56576,
          "time": 38.5464885,
          "velocity": 0.5039370078740157
        },
        {
          "duration": 0.17441849999999448,
          "durationTicks": 256,
          "midi": 71,
          "name": "B4",
          "ticks": 56832,
          "time": 38.720907000000004,
          "velocity": 0.5039370078740157
        },
        {
          "duration": 0.34883699999999607,
          "durationTicks": 512,
          "midi": 52,
          "name": "E3",
          "ticks": 56832,
          "time": 38.720907000000004,
          "velocity": 0.5039370078740157
        },
        {
          "duration": 0.1744185000000016,
          "durationTicks": 256,
          "midi": 69,
          "name": "A4",
          "ticks": 57088,
          "time": 38.8953255,
          "velocity": 0.5039370078740157
        },
        {
          "duration": 0.1744185000000016,
          "durationTicks": 256,
          "midi": 69,
          "name": "A4",
          "ticks": 57344,
          "time": 39.069744,
          "velocity": 0.5039370078740157
        },
        {
          "duration": 0.3488370000000032,
          "durationTicks": 512,
          "midi": 57,
          "name": "A3",
          "ticks": 57344,
          "time": 39.069744,
          "velocity": 0.5039370078740157
        },
        {
          "duration": 0.1744185000000016,
          "durationTicks": 256,
          "midi": 81,
          "name": "A5",
          "ticks": 57600,
          "time": 39.2441625,
          "velocity": 0.5039370078740157
        },
        {
          "duration": 0.17441849999999448,
          "durationTicks": 256,
          "midi": 79,
          "name": "G5",
          "ticks": 57856,
          "time": 39.418581,
          "velocity": 0.5039370078740157
        },
        {
          "duration": 0.34883699999999607,
          "durationTicks": 512,
          "midi": 45,
          "name": "A2",
          "ticks": 57856,
          "time": 39.418581,
          "velocity": 0.5039370078740157
        },
        {
          "duration": 0.1744185000000016,
          "durationTicks": 256,
          "midi": 77,
          "name": "F5",
          "ticks": 58112,
          "time": 39.5929995,
          "velocity": 0.5039370078740157
        },
        {
          "duration": 0.1744185000000016,
          "durationTicks": 256,
          "midi": 76,
          "name": "E5",
          "ticks": 58368,
          "time": 39.767418,
          "velocity": 0.5039370078740157
        },
        {
          "duration": 0.1744185000000016,
          "durationTicks": 256,
          "midi": 79,
          "name": "G5",
          "ticks": 58624,
          "time": 39.9418365,
          "velocity": 0.5039370078740157
        },
        {
          "duration": 0.1744185000000016,
          "durationTicks": 256,
          "midi": 77,
          "name": "F5",
          "ticks": 58880,
          "time": 40.116255,
          "velocity": 0.5039370078740157
        },
        {
          "duration": 0.17441849999999448,
          "durationTicks": 256,
          "midi": 81,
          "name": "A5",
          "ticks": 59136,
          "time": 40.290673500000004,
          "velocity": 0.5039370078740157
        },
        {
          "duration": 1.5697665,
          "durationTicks": 2304,
          "midi": 79,
          "name": "G5",
          "ticks": 59392,
          "time": 40.465092,
          "velocity": 0.5039370078740157
        },
        {
          "duration": 0.1744185000000016,
          "durationTicks": 256,
          "midi": 64,
          "name": "E4",
          "ticks": 59648,
          "time": 40.6395105,
          "velocity": 0.5039370078740157
        },
        {
          "duration": 0.1744185000000016,
          "durationTicks": 256,
          "midi": 62,
          "name": "D4",
          "ticks": 59904,
          "time": 40.813929,
          "velocity": 0.5039370078740157
        },
        {
          "duration": 0.17441849999999448,
          "durationTicks": 256,
          "midi": 60,
          "name": "C4",
          "ticks": 60160,
          "time": 40.9883475,
          "velocity": 0.5039370078740157
        },
        {
          "duration": 0.1744185000000016,
          "durationTicks": 256,
          "midi": 59,
          "name": "B3",
          "ticks": 60416,
          "time": 41.162766,
          "velocity": 0.5039370078740157
        },
        {
          "duration": 0.1744185000000016,
          "durationTicks": 256,
          "midi": 62,
          "name": "D4",
          "ticks": 60672,
          "time": 41.3371845,
          "velocity": 0.5039370078740157
        },
        {
          "duration": 0.1744185000000016,
          "durationTicks": 256,
          "midi": 61,
          "name": "C#4",
          "ticks": 60928,
          "time": 41.511603,
          "velocity": 0.5039370078740157
        },
        {
          "duration": 0.1744185000000016,
          "durationTicks": 256,
          "midi": 64,
          "name": "E4",
          "ticks": 61184,
          "time": 41.6860215,
          "velocity": 0.5039370078740157
        },
        {
          "duration": 1.5697665,
          "durationTicks": 2304,
          "midi": 62,
          "name": "D4",
          "ticks": 61440,
          "time": 41.860440000000004,
          "velocity": 0.5039370078740157
        },
        {
          "duration": 0.1744185000000016,
          "durationTicks": 256,
          "midi": 76,
          "name": "E5",
          "ticks": 61696,
          "time": 42.0348585,
          "velocity": 0.5039370078740157
        },
        {
          "duration": 0.1744185000000016,
          "durationTicks": 256,
          "midi": 77,
          "name": "F5",
          "ticks": 61952,
          "time": 42.209277,
          "velocity": 0.5039370078740157
        },
        {
          "duration": 0.1744185000000016,
          "durationTicks": 256,
          "midi": 79,
          "name": "G5",
          "ticks": 62208,
          "time": 42.3836955,
          "velocity": 0.5039370078740157
        },
        {
          "duration": 0.17441849999999448,
          "durationTicks": 256,
          "midi": 81,
          "name": "A5",
          "ticks": 62464,
          "time": 42.558114,
          "velocity": 0.5039370078740157
        },
        {
          "duration": 0.1744185000000016,
          "durationTicks": 256,
          "midi": 77,
          "name": "F5",
          "ticks": 62720,
          "time": 42.7325325,
          "velocity": 0.5039370078740157
        },
        {
          "duration": 0.1744185000000016,
          "durationTicks": 256,
          "midi": 79,
          "name": "G5",
          "ticks": 62976,
          "time": 42.906951,
          "velocity": 0.5039370078740157
        },
        {
          "duration": 0.1744185000000016,
          "durationTicks": 256,
          "midi": 76,
          "name": "E5",
          "ticks": 63232,
          "time": 43.0813695,
          "velocity": 0.5039370078740157
        },
        {
          "duration": 1.3953479999999985,
          "durationTicks": 2048,
          "midi": 77,
          "name": "F5",
          "ticks": 63488,
          "time": 43.255788,
          "velocity": 0.5039370078740157
        },
        {
          "duration": 0.17441849999999448,
          "durationTicks": 256,
          "midi": 57,
          "name": "A3",
          "ticks": 63744,
          "time": 43.430206500000004,
          "velocity": 0.5039370078740157
        },
        {
          "duration": 0.1744185000000016,
          "durationTicks": 256,
          "midi": 59,
          "name": "B3",
          "ticks": 64000,
          "time": 43.604625,
          "velocity": 0.5039370078740157
        },
        {
          "duration": 0.1744185000000016,
          "durationTicks": 256,
          "midi": 60,
          "name": "C4",
          "ticks": 64256,
          "time": 43.7790435,
          "velocity": 0.5039370078740157
        },
        {
          "duration": 0.1744185000000016,
          "durationTicks": 256,
          "midi": 62,
          "name": "D4",
          "ticks": 64512,
          "time": 43.953462,
          "velocity": 0.5039370078740157
        },
        {
          "duration": 0.17441849999999448,
          "durationTicks": 256,
          "midi": 59,
          "name": "B3",
          "ticks": 64768,
          "time": 44.1278805,
          "velocity": 0.5039370078740157
        },
        {
          "duration": 0.1744185000000016,
          "durationTicks": 256,
          "midi": 60,
          "name": "C4",
          "ticks": 65024,
          "time": 44.302299,
          "velocity": 0.5039370078740157
        },
        {
          "duration": 0.1744185000000016,
          "durationTicks": 256,
          "midi": 57,
          "name": "A3",
          "ticks": 65280,
          "time": 44.4767175,
          "velocity": 0.5039370078740157
        },
        {
          "duration": 1.5697665,
          "durationTicks": 2304,
          "midi": 59,
          "name": "B3",
          "ticks": 65536,
          "time": 44.651136,
          "velocity": 0.5039370078740157
        },
        {
          "duration": 0.1744185000000016,
          "durationTicks": 256,
          "midi": 79,
          "name": "G5",
          "ticks": 65792,
          "time": 44.8255545,
          "velocity": 0.5039370078740157
        },
        {
          "duration": 0.17441849999999448,
          "durationTicks": 256,
          "midi": 77,
          "name": "F5",
          "ticks": 66048,
          "time": 44.999973000000004,
          "velocity": 0.5039370078740157
        },
        {
          "duration": 0.1744185000000016,
          "durationTicks": 256,
          "midi": 76,
          "name": "E5",
          "ticks": 66304,
          "time": 45.1743915,
          "velocity": 0.5039370078740157
        },
        {
          "duration": 0.1744185000000016,
          "durationTicks": 256,
          "midi": 74,
          "name": "D5",
          "ticks": 66560,
          "time": 45.34881,
          "velocity": 0.5039370078740157
        },
        {
          "duration": 0.1744185000000016,
          "durationTicks": 256,
          "midi": 77,
          "name": "F5",
          "ticks": 66816,
          "time": 45.5232285,
          "velocity": 0.5039370078740157
        },
        {
          "duration": 0.17441849999999448,
          "durationTicks": 256,
          "midi": 76,
          "name": "E5",
          "ticks": 67072,
          "time": 45.697647,
          "velocity": 0.5039370078740157
        },
        {
          "duration": 0.1744185000000016,
          "durationTicks": 256,
          "midi": 79,
          "name": "G5",
          "ticks": 67328,
          "time": 45.8720655,
          "velocity": 0.5039370078740157
        },
        {
          "duration": 1.5697665,
          "durationTicks": 2304,
          "midi": 77,
          "name": "F5",
          "ticks": 67584,
          "time": 46.046484,
          "velocity": 0.5039370078740157
        },
        {
          "duration": 0.1744185000000016,
          "durationTicks": 256,
          "midi": 62,
          "name": "D4",
          "ticks": 67840,
          "time": 46.2209025,
          "velocity": 0.5039370078740157
        },
        {
          "duration": 0.1744185000000016,
          "durationTicks": 256,
          "midi": 60,
          "name": "C4",
          "ticks": 68096,
          "time": 46.395321,
          "velocity": 0.5039370078740157
        },
        {
          "duration": 0.17441849999999448,
          "durationTicks": 256,
          "midi": 59,
          "name": "B3",
          "ticks": 68352,
          "time": 46.569739500000004,
          "velocity": 0.5039370078740157
        },
        {
          "duration": 0.1744185000000016,
          "durationTicks": 256,
          "midi": 57,
          "name": "A3",
          "ticks": 68608,
          "time": 46.744158,
          "velocity": 0.5039370078740157
        },
        {
          "duration": 0.1744185000000016,
          "durationTicks": 256,
          "midi": 60,
          "name": "C4",
          "ticks": 68864,
          "time": 46.9185765,
          "velocity": 0.5039370078740157
        },
        {
          "duration": 0.1744185000000016,
          "durationTicks": 256,
          "midi": 59,
          "name": "B3",
          "ticks": 69120,
          "time": 47.092995,
          "velocity": 0.5039370078740157
        },
        {
          "duration": 0.17441849999999448,
          "durationTicks": 256,
          "midi": 62,
          "name": "D4",
          "ticks": 69376,
          "time": 47.2674135,
          "velocity": 0.5039370078740157
        },
        {
          "duration": 1.5697665,
          "durationTicks": 2304,
          "midi": 60,
          "name": "C4",
          "ticks": 69632,
          "time": 47.441832,
          "velocity": 0.5039370078740157
        },
        {
          "duration": 0.1744185000000016,
          "durationTicks": 256,
          "midi": 74,
          "name": "D5",
          "ticks": 69888,
          "time": 47.6162505,
          "velocity": 0.5039370078740157
        },
        {
          "duration": 0.1744185000000016,
          "durationTicks": 256,
          "midi": 76,
          "name": "E5",
          "ticks": 70144,
          "time": 47.790669,
          "velocity": 0.5039370078740157
        },
        {
          "duration": 0.1744185000000016,
          "durationTicks": 256,
          "midi": 77,
          "name": "F5",
          "ticks": 70400,
          "time": 47.9650875,
          "velocity": 0.5039370078740157
        },
        {
          "duration": 0.17441849999999448,
          "durationTicks": 256,
          "midi": 79,
          "name": "G5",
          "ticks": 70656,
          "time": 48.139506000000004,
          "velocity": 0.5039370078740157
        },
        {
          "duration": 0.1744185000000016,
          "durationTicks": 256,
          "midi": 76,
          "name": "E5",
          "ticks": 70912,
          "time": 48.3139245,
          "velocity": 0.5039370078740157
        },
        {
          "duration": 0.1744185000000016,
          "durationTicks": 256,
          "midi": 77,
          "name": "F5",
          "ticks": 71168,
          "time": 48.488343,
          "velocity": 0.5039370078740157
        },
        {
          "duration": 0.1744185000000016,
          "durationTicks": 256,
          "midi": 74,
          "name": "D5",
          "ticks": 71424,
          "time": 48.6627615,
          "velocity": 0.5039370078740157
        },
        {
          "duration": 1.5697665,
          "durationTicks": 2304,
          "midi": 76,
          "name": "E5",
          "ticks": 71680,
          "time": 48.837180000000004,
          "velocity": 0.5039370078740157
        },
        {
          "duration": 0.1744185000000016,
          "durationTicks": 256,
          "midi": 55,
          "name": "G3",
          "ticks": 71936,
          "time": 49.0115985,
          "velocity": 0.5039370078740157
        },
        {
          "duration": 0.1744185000000016,
          "durationTicks": 256,
          "midi": 57,
          "name": "A3",
          "ticks": 72192,
          "time": 49.186017,
          "velocity": 0.5039370078740157
        },
        {
          "duration": 0.1744185000000016,
          "durationTicks": 256,
          "midi": 58,
          "name": "A#3",
          "ticks": 72448,
          "time": 49.3604355,
          "velocity": 0.5039370078740157
        },
        {
          "duration": 0.1744185000000016,
          "durationTicks": 256,
          "midi": 60,
          "name": "C4",
          "ticks": 72704,
          "time": 49.534854,
          "velocity": 0.5039370078740157
        },
        {
          "duration": 0.17441849999999448,
          "durationTicks": 256,
          "midi": 57,
          "name": "A3",
          "ticks": 72960,
          "time": 49.709272500000004,
          "velocity": 0.5039370078740157
        },
        {
          "duration": 0.1744185000000016,
          "durationTicks": 256,
          "midi": 58,
          "name": "A#3",
          "ticks": 73216,
          "time": 49.883691,
          "velocity": 0.5039370078740157
        },
        {
          "duration": 0.1744185000000016,
          "durationTicks": 256,
          "midi": 55,
          "name": "G3",
          "ticks": 73472,
          "time": 50.0581095,
          "velocity": 0.5039370078740157
        },
        {
          "duration": 0.34883699999999607,
          "durationTicks": 512,
          "midi": 57,
          "name": "A3",
          "ticks": 73728,
          "time": 50.232528,
          "velocity": 0.5039370078740157
        },
        {
          "duration": 0.17441849999999448,
          "durationTicks": 256,
          "midi": 72,
          "name": "C5",
          "ticks": 73984,
          "time": 50.406946500000004,
          "velocity": 0.5039370078740157
        },
        {
          "duration": 0.1744185000000016,
          "durationTicks": 256,
          "midi": 74,
          "name": "D5",
          "ticks": 74240,
          "time": 50.581365,
          "velocity": 0.5039370078740157
        },
        {
          "duration": 0.3488370000000032,
          "durationTicks": 512,
          "midi": 58,
          "name": "A#3",
          "ticks": 74240,
          "time": 50.581365,
          "velocity": 0.5039370078740157
        },
        {
          "duration": 0.1744185000000016,
          "durationTicks": 256,
          "midi": 76,
          "name": "E5",
          "ticks": 74496,
          "time": 50.7557835,
          "velocity": 0.5039370078740157
        },
        {
          "duration": 0.1744185000000016,
          "durationTicks": 256,
          "midi": 77,
          "name": "F5",
          "ticks": 74752,
          "time": 50.930202,
          "velocity": 0.5039370078740157
        },
        {
          "duration": 0.3488370000000032,
          "durationTicks": 512,
          "midi": 57,
          "name": "A3",
          "ticks": 74752,
          "time": 50.930202,
          "velocity": 0.5039370078740157
        },
        {
          "duration": 0.1744185000000016,
          "durationTicks": 256,
          "midi": 74,
          "name": "D5",
          "ticks": 75008,
          "time": 51.1046205,
          "velocity": 0.5039370078740157
        },
        {
          "duration": 0.17441849999999448,
          "durationTicks": 256,
          "midi": 76,
          "name": "E5",
          "ticks": 75264,
          "time": 51.279039000000004,
          "velocity": 0.5039370078740157
        },
        {
          "duration": 0.34883699999999607,
          "durationTicks": 512,
          "midi": 55,
          "name": "G3",
          "ticks": 75264,
          "time": 51.279039000000004,
          "velocity": 0.5039370078740157
        },
        {
          "duration": 0.1744185000000016,
          "durationTicks": 256,
          "midi": 72,
          "name": "C5",
          "ticks": 75520,
          "time": 51.4534575,
          "velocity": 0.5039370078740157
        },
        {
          "duration": 0.1744185000000016,
          "durationTicks": 256,
          "midi": 74,
          "name": "D5",
          "ticks": 75776,
          "time": 51.627876,
          "velocity": 0.5039370078740157
        },
        {
          "duration": 0.3488370000000032,
          "durationTicks": 512,
          "midi": 53,
          "name": "F3",
          "ticks": 75776,
          "time": 51.627876,
          "velocity": 0.5039370078740157
        },
        {
          "duration": 0.1744185000000016,
          "durationTicks": 256,
          "midi": 76,
          "name": "E5",
          "ticks": 76032,
          "time": 51.8022945,
          "velocity": 0.5039370078740157
        },
        {
          "duration": 0.17441849999999448,
          "durationTicks": 256,
          "midi": 77,
          "name": "F5",
          "ticks": 76288,
          "time": 51.976713000000004,
          "velocity": 0.5039370078740157
        },
        {
          "duration": 0.34883699999999607,
          "durationTicks": 512,
          "midi": 62,
          "name": "D4",
          "ticks": 76288,
          "time": 51.976713000000004,
          "velocity": 0.5039370078740157
        },
        {
          "duration": 0.1744185000000016,
          "durationTicks": 256,
          "midi": 79,
          "name": "G5",
          "ticks": 76544,
          "time": 52.1511315,
          "velocity": 0.5039370078740157
        },
        {
          "duration": 0.1744185000000016,
          "durationTicks": 256,
          "midi": 81,
          "name": "A5",
          "ticks": 76800,
          "time": 52.32555,
          "velocity": 0.5039370078740157
        },
        {
          "duration": 0.3488370000000032,
          "durationTicks": 512,
          "midi": 60,
          "name": "C4",
          "ticks": 76800,
          "time": 52.32555,
          "velocity": 0.5039370078740157
        },
        {
          "duration": 0.1744185000000016,
          "durationTicks": 256,
          "midi": 77,
          "name": "F5",
          "ticks": 77056,
          "time": 52.4999685,
          "velocity": 0.5039370078740157
        },
        {
          "duration": 0.1744185000000016,
          "durationTicks": 256,
          "midi": 79,
          "name": "G5",
          "ticks": 77312,
          "time": 52.674387,
          "velocity": 0.5039370078740157
        },
        {
          "duration": 0.34883699999999607,
          "durationTicks": 512,
          "midi": 58,
          "name": "A#3",
          "ticks": 77312,
          "time": 52.674387,
          "velocity": 0.5039370078740157
        },
        {
          "duration": 0.17441849999999448,
          "durationTicks": 256,
          "midi": 76,
          "name": "E5",
          "ticks": 77568,
          "time": 52.848805500000005,
          "velocity": 0.5039370078740157
        },
        {
          "duration": 0.1744185000000016,
          "durationTicks": 256,
          "midi": 77,
          "name": "F5",
          "ticks": 77824,
          "time": 53.023224,
          "velocity": 0.5039370078740157
        },
        {
          "duration": 0.3488370000000032,
          "durationTicks": 512,
          "midi": 57,
          "name": "A3",
          "ticks": 77824,
          "time": 53.023224,
          "velocity": 0.5039370078740157
        },
        {
          "duration": 0.1744185000000016,
          "durationTicks": 256,
          "midi": 79,
          "name": "G5",
          "ticks": 78080,
          "time": 53.1976425,
          "velocity": 0.5039370078740157
        },
        {
          "duration": 0.1744185000000016,
          "durationTicks": 256,
          "midi": 81,
          "name": "A5",
          "ticks": 78336,
          "time": 53.372061,
          "velocity": 0.5039370078740157
        },
        {
          "duration": 0.34883699999999607,
          "durationTicks": 512,
          "midi": 65,
          "name": "F4",
          "ticks": 78336,
          "time": 53.372061,
          "velocity": 0.5039370078740157
        },
        {
          "duration": 0.17441849999999448,
          "durationTicks": 256,
          "midi": 83,
          "name": "B5",
          "ticks": 78592,
          "time": 53.546479500000004,
          "velocity": 0.5039370078740157
        },
        {
          "duration": 0.1744185000000016,
          "durationTicks": 256,
          "midi": 84,
          "name": "C6",
          "ticks": 78848,
          "time": 53.720898,
          "velocity": 0.5039370078740157
        },
        {
          "duration": 0.3488370000000032,
          "durationTicks": 512,
          "midi": 64,
          "name": "E4",
          "ticks": 78848,
          "time": 53.720898,
          "velocity": 0.5039370078740157
        },
        {
          "duration": 0.1744185000000016,
          "durationTicks": 256,
          "midi": 81,
          "name": "A5",
          "ticks": 79104,
          "time": 53.8953165,
          "velocity": 0.5039370078740157
        },
        {
          "duration": 0.1744185000000016,
          "durationTicks": 256,
          "midi": 83,
          "name": "B5",
          "ticks": 79360,
          "time": 54.069735,
          "velocity": 0.5039370078740157
        },
        {
          "duration": 0.3488370000000032,
          "durationTicks": 512,
          "midi": 62,
          "name": "D4",
          "ticks": 79360,
          "time": 54.069735,
          "velocity": 0.5039370078740157
        },
        {
          "duration": 0.1744185000000016,
          "durationTicks": 256,
          "midi": 79,
          "name": "G5",
          "ticks": 79616,
          "time": 54.2441535,
          "velocity": 0.5039370078740157
        },
        {
          "duration": 0.34883699999999607,
          "durationTicks": 512,
          "midi": 84,
          "name": "C6",
          "ticks": 79872,
          "time": 54.418572000000005,
          "velocity": 0.5039370078740157
        },
        {
          "duration": 0.17441849999999448,
          "durationTicks": 256,
          "midi": 64,
          "name": "E4",
          "ticks": 79872,
          "time": 54.418572000000005,
          "velocity": 0.5039370078740157
        },
        {
          "duration": 0.1744185000000016,
          "durationTicks": 256,
          "midi": 50,
          "name": "D3",
          "ticks": 80128,
          "time": 54.5929905,
          "velocity": 0.5039370078740157
        },
        {
          "duration": 0.3488370000000032,
          "durationTicks": 512,
          "midi": 79,
          "name": "G5",
          "ticks": 80384,
          "time": 54.767409,
          "velocity": 0.5039370078740157
        },
        {
          "duration": 0.1744185000000016,
          "durationTicks": 256,
          "midi": 52,
          "name": "E3",
          "ticks": 80384,
          "time": 54.767409,
          "velocity": 0.5039370078740157
        },
        {
          "duration": 0.1744185000000016,
          "durationTicks": 256,
          "midi": 53,
          "name": "F3",
          "ticks": 80640,
          "time": 54.9418275,
          "velocity": 0.5039370078740157
        },
        {
          "duration": 0.17441849999999448,
          "durationTicks": 256,
          "midi": 76,
          "name": "E5",
          "ticks": 80896,
          "time": 55.116246000000004,
          "velocity": 0.5039370078740157
        },
        {
          "duration": 0.17441849999999448,
          "durationTicks": 256,
          "midi": 77,
          "name": "F5",
          "ticks": 80896,
          "time": 55.116246000000004,
          "velocity": 0.4409448818897638
        },
        {
          "duration": 0.17441849999999448,
          "durationTicks": 256,
          "midi": 55,
          "name": "G3",
          "ticks": 80896,
          "time": 55.116246000000004,
          "velocity": 0.5039370078740157
        },
        {
          "duration": 0.1744185000000016,
          "durationTicks": 256,
          "midi": 76,
          "name": "E5",
          "ticks": 81152,
          "time": 55.2906645,
          "velocity": 0.5039370078740157
        },
        {
          "duration": 0.1744185000000016,
          "durationTicks": 256,
          "midi": 52,
          "name": "E3",
          "ticks": 81152,
          "time": 55.2906645,
          "velocity": 0.5039370078740157
        },
        {
          "duration": 0.1744185000000016,
          "durationTicks": 256,
          "midi": 74,
          "name": "D5",
          "ticks": 81408,
          "time": 55.465083,
          "velocity": 0.5039370078740157
        },
        {
          "duration": 0.1744185000000016,
          "durationTicks": 256,
          "midi": 53,
          "name": "F3",
          "ticks": 81408,
          "time": 55.465083,
          "velocity": 0.5039370078740157
        },
        {
          "duration": 0.1744185000000016,
          "durationTicks": 256,
          "midi": 72,
          "name": "C5",
          "ticks": 81664,
          "time": 55.6395015,
          "velocity": 0.5039370078740157
        },
        {
          "duration": 0.1744185000000016,
          "durationTicks": 256,
          "midi": 50,
          "name": "D3",
          "ticks": 81664,
          "time": 55.6395015,
          "velocity": 0.5039370078740157
        },
        {
          "duration": 0.1744185000000016,
          "durationTicks": 256,
          "midi": 72,
          "name": "C5",
          "ticks": 81920,
          "time": 55.81392,
          "velocity": 0.5039370078740157
        },
        {
          "duration": 0.34883699999999607,
          "durationTicks": 512,
          "midi": 52,
          "name": "E3",
          "ticks": 81920,
          "time": 55.81392,
          "velocity": 0.5039370078740157
        },
        {
          "duration": 0.17441849999999448,
          "durationTicks": 256,
          "midi": 70,
          "name": "A#4",
          "ticks": 82176,
          "time": 55.988338500000005,
          "velocity": 0.5039370078740157
        },
        {
          "duration": 0.1744185000000016,
          "durationTicks": 256,
          "midi": 69,
          "name": "A4",
          "ticks": 82432,
          "time": 56.162757,
          "velocity": 0.5039370078740157
        },
        {
          "duration": 0.3488370000000032,
          "durationTicks": 512,
          "midi": 48,
          "name": "C3",
          "ticks": 82432,
          "time": 56.162757,
          "velocity": 0.5039370078740157
        },
        {
          "duration": 0.1744185000000016,
          "durationTicks": 256,
          "midi": 67,
          "name": "G4",
          "ticks": 82688,
          "time": 56.3371755,
          "velocity": 0.5039370078740157
        },
        {
          "duration": 0.1744185000000016,
          "durationTicks": 256,
          "midi": 65,
          "name": "F4",
          "ticks": 82944,
          "time": 56.511594,
          "velocity": 0.5039370078740157
        },
        {
          "duration": 0.34883699999999607,
          "durationTicks": 512,
          "midi": 50,
          "name": "D3",
          "ticks": 82944,
          "time": 56.511594,
          "velocity": 0.5039370078740157
        },
        {
          "duration": 0.17441849999999448,
          "durationTicks": 256,
          "midi": 69,
          "name": "A4",
          "ticks": 83200,
          "time": 56.686012500000004,
          "velocity": 0.5039370078740157
        },
        {
          "duration": 0.1744185000000016,
          "durationTicks": 256,
          "midi": 67,
          "name": "G4",
          "ticks": 83456,
          "time": 56.860431,
          "velocity": 0.5039370078740157
        },
        {
          "duration": 0.3488370000000032,
          "durationTicks": 512,
          "midi": 52,
          "name": "E3",
          "ticks": 83456,
          "time": 56.860431,
          "velocity": 0.5039370078740157
        },
        {
          "duration": 0.1744185000000016,
          "durationTicks": 256,
          "midi": 70,
          "name": "A#4",
          "ticks": 83712,
          "time": 57.0348495,
          "velocity": 0.5039370078740157
        },
        {
          "duration": 0.1744185000000016,
          "durationTicks": 256,
          "midi": 69,
          "name": "A4",
          "ticks": 83968,
          "time": 57.209268,
          "velocity": 0.5039370078740157
        },
        {
          "duration": 0.1744185000000016,
          "durationTicks": 256,
          "midi": 53,
          "name": "F3",
          "ticks": 83968,
          "time": 57.209268,
          "velocity": 0.5039370078740157
        },
        {
          "duration": 0.1744185000000016,
          "durationTicks": 256,
          "midi": 71,
          "name": "B4",
          "ticks": 84224,
          "time": 57.3836865,
          "velocity": 0.5039370078740157
        },
        {
          "duration": 0.1744185000000016,
          "durationTicks": 256,
          "midi": 50,
          "name": "D3",
          "ticks": 84224,
          "time": 57.3836865,
          "velocity": 0.5039370078740157
        },
        {
          "duration": 0.17441849999999448,
          "durationTicks": 256,
          "midi": 72,
          "name": "C5",
          "ticks": 84480,
          "time": 57.558105000000005,
          "velocity": 0.5039370078740157
        },
        {
          "duration": 0.17441849999999448,
          "durationTicks": 256,
          "midi": 52,
          "name": "E3",
          "ticks": 84480,
          "time": 57.558105000000005,
          "velocity": 0.5039370078740157
        },
        {
          "duration": 0.1744185000000016,
          "durationTicks": 256,
          "midi": 64,
          "name": "E4",
          "ticks": 84736,
          "time": 57.7325235,
          "velocity": 0.5039370078740157
        },
        {
          "duration": 0.1744185000000016,
          "durationTicks": 256,
          "midi": 53,
          "name": "F3",
          "ticks": 84736,
          "time": 57.7325235,
          "velocity": 0.5039370078740157
        },
        {
          "duration": 0.1744185000000016,
          "durationTicks": 256,
          "midi": 62,
          "name": "D4",
          "ticks": 84992,
          "time": 57.906942,
          "velocity": 0.5039370078740157
        },
        {
          "duration": 0.3488370000000032,
          "durationTicks": 512,
          "midi": 55,
          "name": "G3",
          "ticks": 84992,
          "time": 57.906942,
          "velocity": 0.5039370078740157
        },
        {
          "duration": 0.1744185000000016,
          "durationTicks": 256,
          "midi": 72,
          "name": "C5",
          "ticks": 85248,
          "time": 58.0813605,
          "velocity": 0.5039370078740157
        },
        {
          "duration": 0.17441849999999448,
          "durationTicks": 256,
          "midi": 65,
          "name": "F4",
          "ticks": 85504,
          "time": 58.255779000000004,
          "velocity": 0.5039370078740157
        },
        {
          "duration": 0.34883699999999607,
          "durationTicks": 512,
          "midi": 43,
          "name": "G2",
          "ticks": 85504,
          "time": 58.255779000000004,
          "velocity": 0.5039370078740157
        },
        {
          "duration": 0.1744185000000016,
          "durationTicks": 256,
          "midi": 71,
          "name": "B4",
          "ticks": 85760,
          "time": 58.4301975,
          "velocity": 0.5039370078740157
        },
        {
          "duration": 2.790696000000004,
          "durationTicks": 4096,
          "midi": 67,
          "name": "G4",
          "ticks": 86016,
          "time": 58.604616,
          "velocity": 0.5039370078740157
        },
        {
          "duration": 2.790696000000004,
          "durationTicks": 4096,
          "midi": 72,
          "name": "C5",
          "ticks": 86016,
          "time": 58.604616,
          "velocity": 0.5039370078740157
        },
        {
          "duration": 2.790696000000004,
          "durationTicks": 4096,
          "midi": 64,
          "name": "E4",
          "ticks": 86016,
          "time": 58.604616,
          "velocity": 0.5039370078740157
        },
        {
          "duration": 2.790696000000004,
          "durationTicks": 4096,
          "midi": 36,
          "name": "C2",
          "ticks": 86016,
          "time": 58.604616,
          "velocity": 0.5039370078740157
        },
        {
          "duration": 2.790696000000004,
          "durationTicks": 4096,
          "midi": 48,
          "name": "C3",
          "ticks": 86016,
          "time": 58.604616,
          "velocity": 0.5039370078740157
        }
      ],
      "endOfTrackTicks": 91136
    }
  ]
}
